<svg width="81" height="88" viewBox="0 0 81 88" fill="none" xmlns="http://www.w3.org/2000/svg">
<ellipse cx="39.5477" cy="43.4359" rx="39.5477" ry="39.5641" fill="#9989C6"/>
<ellipse opacity="0.1" cx="63.5033" cy="70.6295" rx="17.0414" ry="17.0485" fill="#9989C6"/>
<path d="M15.5535 26.4772C15.4704 26.4772 15.3861 26.4974 15.3028 26.5372C15.2293 26.5729 15.1639 26.6362 15.1087 26.7255C15.0689 26.7881 15.0404 26.8704 15.022 26.9768C15.0061 27.0764 15.0014 27.1817 15.0074 27.2988C15.0192 27.5225 15.0654 27.7782 15.1486 28.0807C15.2217 28.3517 15.3164 28.635 15.4472 28.9727C15.5588 29.263 15.6942 29.5787 15.8499 29.9118C16.1463 30.5451 16.4063 31.0085 16.6925 31.4146C17.3836 32.3975 18.1613 33.3438 19.0039 34.2273C19.8499 35.1136 20.7678 35.9391 21.7318 36.6807C22.692 37.4206 23.6942 38.0729 24.7113 38.6193C24.6967 38.6574 24.7062 38.7106 24.7345 38.752C24.7584 38.7898 24.7927 38.8135 24.8335 38.8205C24.9592 38.8428 25.0847 38.8616 25.2115 38.8787C25.2637 38.9059 25.3192 38.933 25.3748 38.9604C25.3993 38.9735 25.4276 38.9805 25.4571 38.9805C25.5075 38.9805 25.5553 38.9586 25.5878 38.9207C25.9923 38.9634 26.4253 38.9847 26.8733 38.9847L26.9314 38.9838C27.8508 38.9814 28.6636 38.8892 29.4157 38.7025C30.292 38.4867 30.9909 38.141 31.4938 37.675C31.7629 37.425 31.9791 37.1194 32.1195 36.7919C32.1562 36.7046 32.1904 36.6146 32.2186 36.5249C32.2587 36.3953 32.2821 36.2666 32.2906 36.1311C32.3051 35.8964 32.2438 35.6416 32.1133 35.3944C32.0413 35.2579 31.9452 35.139 31.8609 35.0409C31.7764 34.9453 31.6714 34.8487 31.5398 34.7456C31.4331 34.6633 31.3233 34.5891 31.2129 34.5247C31.6064 34.572 32.0315 34.5939 32.475 34.5939C32.6536 34.5939 32.8324 34.5904 33.0102 34.5828C33.1052 34.5793 33.1807 34.5015 33.1792 34.4094C33.1783 34.3179 33.1017 34.2406 33.0119 34.2406C32.8287 34.2474 32.6518 34.2518 32.475 34.2518C31.9575 34.2518 31.4233 34.2216 30.8872 34.1618C29.4306 33.9928 27.8931 33.5955 26.3172 32.9813C24.1674 32.1343 21.9946 30.9238 19.6746 29.2807C19.4018 29.0874 19.1326 28.8906 18.8639 28.6906C18.3914 28.3383 17.9212 27.9741 17.4667 27.6083L17.2778 27.456C16.9792 27.2139 16.671 26.9641 16.3311 26.759C16.195 26.6764 16.0587 26.6095 15.9152 26.5545C15.8103 26.5125 15.6991 26.4869 15.5844 26.4781L15.5535 26.4772Z" fill="#54436F"/>
<path d="M15.3008 26.5342C15.2264 26.5692 15.1605 26.6333 15.1049 26.724C15.0657 26.7855 15.0365 26.8684 15.0169 26.977C15.0017 27.0755 14.9964 27.1806 15.0025 27.2986C15.0143 27.5236 15.0613 27.7799 15.1443 28.0827C15.217 28.3521 15.312 28.6352 15.4436 28.9745C15.5564 29.2696 15.6924 29.5852 15.8463 29.9136C16.1415 30.5471 16.4013 31.0105 16.6888 31.4159C17.2302 32.1867 17.8235 32.9333 18.4592 33.6443C18.3978 33.49 18.3429 33.3335 18.2937 33.1748C18.1946 32.8558 18.1148 32.531 18.06 32.2018C18.0063 31.8793 17.9704 31.5536 17.9662 31.2268C17.961 30.9258 17.9789 30.6233 18.0381 30.3282C18.0644 30.1949 18.0978 30.0622 18.1439 29.9339C18.1869 29.8151 18.238 29.6988 18.3023 29.5903C18.4201 29.3902 18.5799 29.2113 18.7835 29.0942C18.8863 29.0353 18.9983 28.9892 19.1128 28.9618C19.1452 28.9539 19.1776 28.9469 19.2105 28.9412C19.0955 28.8572 18.981 28.7727 18.8665 28.6873C18.4013 28.3401 17.9312 27.9759 17.4701 27.6048L17.2812 27.4525C16.975 27.2053 16.6699 26.9582 16.333 26.7557C16.1988 26.6736 16.0626 26.6068 15.9166 26.5512C15.8149 26.5094 15.7028 26.4838 15.5847 26.4727L15.553 26.4718C15.4694 26.4718 15.3847 26.4932 15.3008 26.5342Z" fill="white"/>
<path d="M33.8297 47.5579C33.6745 47.5579 33.5099 47.5652 33.3405 47.5794C32.881 47.6199 32.4426 47.7129 32.0376 47.8565C31.6197 48.0032 31.2424 48.2009 30.917 48.4443C30.6853 48.619 30.4767 48.8136 30.2968 49.0226C30.1243 49.2225 29.971 49.4458 29.8414 49.6857C29.612 50.1086 29.4549 50.595 29.3607 51.1725C29.3531 51.2186 29.3463 51.2648 29.3394 51.3119H29.3351C29.2972 51.3119 29.2532 51.336 29.2237 51.3723C29.1985 51.4025 29.1863 51.4404 29.1898 51.4759C29.2172 51.7633 29.2384 52.0513 29.259 52.3394C29.2539 52.5257 29.2531 52.7122 29.2539 52.8985C29.2539 52.9453 29.2721 52.9878 29.3067 53.0213C29.3195 53.2409 29.3351 53.4648 29.3522 53.689C29.4319 54.7259 29.5306 55.5617 29.6626 56.3193C29.8349 57.2941 30.0687 58.1075 30.3775 58.8056C30.5446 59.183 30.7405 59.5253 30.9603 59.8226C31.0767 59.9804 31.2019 60.1284 31.3324 60.2624C31.4553 60.3878 31.5952 60.5086 31.7611 60.6319C32.0054 60.8125 32.2858 60.9574 32.6431 61.0881C32.913 61.1861 33.1954 61.2702 33.5318 61.3532C34.3146 61.5482 35.0987 61.6653 35.8622 61.7012C35.9999 61.7071 36.1376 61.7106 36.2744 61.7106C36.538 61.7106 36.7974 61.6973 37.0452 61.6704C37.4589 61.625 37.8072 61.5462 38.1104 61.4293C38.4466 61.303 38.7264 61.129 38.9422 60.9123C39.0538 60.8 39.1486 60.6722 39.2239 60.5321C39.3067 60.381 39.3678 60.2096 39.41 60.008C39.4315 59.9032 39.4452 59.7939 39.4509 59.6836C39.4551 59.5928 39.4485 59.4956 39.4301 59.3686C39.4054 59.2049 39.3413 59.033 39.2393 58.8575C39.1497 58.7044 39.0352 58.5661 38.9159 58.426L38.8098 58.3045C38.7305 58.213 38.6517 58.1217 38.5773 58.0278C38.4597 57.8722 38.3763 57.7354 38.3153 57.5972C38.261 57.458 38.2229 57.3076 38.1982 57.1367C38.1469 56.7437 38.164 56.3462 38.18 55.9618L38.1828 55.8905C38.1879 55.7563 38.1929 55.6221 38.1947 55.4877C38.1957 55.4194 38.1957 55.35 38.1957 55.2808C38.1957 55.2116 38.1957 55.1422 38.1966 55.0731C38.1971 54.9546 38.199 54.8369 38.2014 54.7189L38.2032 54.5996L38.2126 54.2478C38.2176 54.0545 38.222 53.8608 38.2255 53.6673C38.2461 52.5277 38.2288 51.211 37.761 50.0092C37.6459 49.7126 37.525 49.4657 37.3915 49.2538C37.2785 49.0752 37.1435 48.9042 36.9909 48.7455C36.7057 48.4508 36.3559 48.2044 35.9516 48.013C35.3251 47.7153 34.5913 47.5579 33.8297 47.5579Z" fill="#3D3050"/>
<path d="M60.5989 48.0579H60.57C60.105 48.0614 59.6099 48.1542 59.0992 48.3351C58.6358 48.4992 58.1726 48.7304 57.6837 49.0426C57.2532 49.3181 56.8274 49.6454 56.3821 50.0432C56.0004 50.3849 55.6223 50.771 55.2581 51.1909C54.9341 51.5645 54.6305 51.9586 54.3549 52.3618C54.1995 52.5892 54.053 52.8254 53.9199 53.064C53.7774 53.3214 53.6461 53.5984 53.5187 53.9107C53.2961 54.4575 53.1428 55.0523 53.0642 55.6779C52.9909 56.2705 52.999 56.8985 53.0881 57.5443C53.2545 58.7334 53.6069 59.9205 54.136 61.0721C54.2603 61.3416 54.4013 61.6165 54.5552 61.8888C54.717 62.1749 54.859 62.3998 55.0024 62.5963C55.2303 62.907 55.5339 63.1828 55.9043 63.4161C56.2381 63.6258 56.6378 63.8003 57.0916 63.9345C57.5034 64.0553 57.9589 64.1341 58.4457 64.1689C58.6009 64.1799 58.7592 64.1856 58.9157 64.1856C59.2147 64.1856 59.5177 64.1652 59.8169 64.1251C60.2836 64.0634 60.7173 63.9577 61.1061 63.8104C61.3088 63.734 61.5018 63.6457 61.6809 63.547C61.8578 63.4505 62.0294 63.3351 62.2043 63.1935C62.5893 62.8842 62.8398 62.4895 62.91 62.0815C62.9597 61.787 62.9284 61.4629 62.8177 61.1185C62.7001 60.7562 62.514 60.4189 62.3479 60.1365C62.2214 59.9229 62.0859 59.7145 61.951 59.5054C61.8799 59.3955 61.809 59.2859 61.7389 59.1751C61.5349 58.854 61.3725 58.5797 61.2433 58.2861C61.1566 58.0793 61.0991 57.8766 61.0673 57.6666C61.0325 57.3648 61.0393 57.0539 61.0853 56.6987C61.1612 56.1639 61.3011 55.6475 61.4878 55.0368C61.5288 54.9037 61.5706 54.7712 61.6128 54.6386C61.6546 54.5061 61.6967 54.3735 61.7376 54.2406C61.7969 54.0467 61.851 53.8521 61.9051 53.657L61.9703 53.4241C62.1314 52.8469 62.3124 52.265 62.4871 51.7022C62.7229 50.9444 62.9661 50.1607 63.1655 49.3784C63.2406 49.0846 63.31 48.7821 63.3715 48.4787C63.3912 48.3843 63.3424 48.2983 63.2557 48.2746L63.2145 48.269C63.1473 48.269 63.0674 48.3119 63.051 48.3907C62.9996 48.6424 62.9418 48.8983 62.8792 49.1507C62.7076 48.7424 62.2958 48.4852 61.9819 48.3412C61.7689 48.2431 61.5443 48.1702 61.3142 48.1249C61.089 48.0805 60.8482 48.0579 60.5989 48.0579Z" fill="#54436F"/>
<path d="M54.3963 60.8548L54.3947 60.8598L54.3963 60.8548ZM58.3676 57.543L58.3564 57.5447L58.3676 57.543ZM58.8376 57.5112C58.6754 57.5121 58.5138 57.5242 58.3529 57.5447H58.3564C58.1818 57.5695 58.0082 57.6045 57.8383 57.6524C57.661 57.7021 57.4891 57.7619 57.3197 57.8319L57.3326 57.8269C57.1282 57.9131 56.9292 58.0123 56.7385 58.1261C56.5555 58.2365 56.3787 58.3562 56.2092 58.4862L56.2086 58.4867L56.1998 58.493L56.2013 58.4917L56.1978 58.4939L56.1989 58.4937L56.1998 58.493L56.1989 58.4937C56.0059 58.6456 55.8215 58.8087 55.6484 58.9829C55.477 59.1574 55.3172 59.3413 55.1675 59.5337C55.0127 59.7362 54.8693 59.9474 54.741 60.1681C54.6095 60.394 54.4928 60.6273 54.3906 60.8674L54.3941 60.8618L54.3947 60.8598L54.3941 60.8618C54.3356 61.0023 54.282 61.1446 54.2343 61.2888C54.331 61.4872 54.437 61.6885 54.551 61.891C54.7146 62.1793 54.8564 62.4041 54.9991 62.6001C55.2294 62.912 55.5326 63.1882 55.9021 63.4192C56.2346 63.6296 56.6343 63.804 57.0901 63.9382C57.5005 64.0588 57.9563 64.1374 58.4453 64.1742C58.6027 64.1845 58.7614 64.1904 58.9162 64.1904C59.2158 64.1904 59.5192 64.17 59.817 64.1306C60.2878 64.0674 60.7221 63.9612 61.108 63.8143C61.3134 63.7364 61.5073 63.6475 61.6827 63.5508C61.8639 63.4516 62.0355 63.3362 62.2078 63.1968C62.5922 62.8881 62.8439 62.4921 62.9146 62.0817C62.9637 61.7868 62.9328 61.4618 62.8216 61.1163C62.7027 60.7512 62.5173 60.4152 62.3514 60.1348C62.2249 59.9209 62.0861 59.7055 61.9545 59.5037C61.8836 59.3942 61.8125 59.2839 61.7426 59.1736C61.6168 58.9746 61.5067 58.7944 61.4112 58.6187C61.367 58.5749 61.3219 58.5322 61.2757 58.4904C61.1936 58.416 61.1087 58.345 61.0218 58.2767C60.8863 58.1732 60.7464 58.0764 60.5991 57.9911C60.4688 57.9147 60.3333 57.8462 60.1932 57.7855L60.1897 57.7842L60.1932 57.7855L60.1939 57.7857C60.0466 57.7242 59.8955 57.6704 59.7414 57.6292C59.5989 57.5918 59.4551 57.5618 59.3087 57.5412L59.3235 57.5439C59.1681 57.5231 59.011 57.5112 58.8542 57.5112H58.8376Z" fill="#E8E9E6"/>
<path d="M56.2066 58.4877L56.2083 58.4868L56.2089 58.4864V58.4857L56.2066 58.4877Z" fill="#E8E9E6"/>
<path d="M58.8146 61.0758C58.7778 61.0982 58.7555 61.1562 58.7837 61.1947C58.9299 61.3922 59.0471 61.6067 59.1447 61.8326C59.2191 62.0121 59.2824 62.196 59.3327 62.3842C59.3901 62.5917 59.4295 62.803 59.4584 63.0168L59.456 62.9928C59.503 63.3502 59.5157 63.7121 59.4678 64.0702L59.4739 64.0207C59.4676 64.0687 59.4581 64.1153 59.449 64.1619C59.5801 64.1497 59.7112 64.1378 59.8421 64.1241C59.8439 63.9078 59.8268 63.6906 59.8023 63.4752C59.7679 63.1852 59.7081 62.9006 59.6304 62.6184C59.5542 62.3413 59.4551 62.0694 59.3371 61.8068C59.2268 61.5614 59.0932 61.3236 58.9326 61.1076C58.9146 61.0809 58.8864 61.0638 58.8573 61.0638L58.8146 61.0758Z" fill="#4A3960"/>
<path d="M60.9384 60.4968C60.899 60.5362 60.9034 60.5969 60.9384 60.6372C60.9717 60.6739 61.0043 60.7122 61.0349 60.7516C61.1932 60.9603 61.318 61.1894 61.4206 61.4289L61.4095 61.4007C61.5892 61.8308 61.696 62.2848 61.7601 62.7458L61.7534 62.6988C61.7879 62.9536 61.8076 63.2099 61.8087 63.4662C61.8484 63.4422 61.8878 63.4179 61.9269 63.3931H61.9267L61.9252 63.3938L61.9267 63.3931L61.9274 63.3927L61.9283 63.392L61.9313 63.3896L61.9337 63.3879L61.9313 63.3896L61.9294 63.3914L61.9283 63.392L61.9276 63.3927L61.9294 63.3914L61.937 63.3861L61.9357 63.3866L61.9337 63.3879L61.9357 63.3866C62.0222 63.3301 62.1069 63.2714 62.1896 63.2101C62.1441 62.7806 62.0375 62.3562 61.8926 61.9506C61.7063 61.428 61.4497 60.9141 61.0796 60.4968C61.0623 60.4763 61.0367 60.4669 61.0119 60.4669C60.9846 60.4669 60.9572 60.4771 60.9384 60.4968Z" fill="#4A3960"/>
<path d="M61.9271 63.3927L61.9267 63.3931L61.9273 63.3927H61.9271Z" fill="#4A3960"/>
<path d="M64.4855 33.4344C64.2996 33.4344 64.0967 33.4429 63.8474 33.4609C63.4461 33.4909 63.0107 33.5371 62.4775 33.6062C61.6065 33.7181 60.7256 33.8669 59.8736 34.0108L59.7677 34.0287C58.8032 34.1914 57.9337 34.335 57.0537 34.4451C56.1098 34.563 55.1594 34.6208 54.273 34.6657C52.976 34.7325 51.6412 34.7662 50.3052 34.7662C49.3624 34.7662 48.3964 34.7493 47.4341 34.7161L47.4113 34.7169V34.715C43.9163 34.588 40.2915 34.2338 36.6304 33.6618L36.6052 33.6599C36.5702 33.6599 36.536 33.6708 36.5058 33.6914C36.1799 33.6837 35.8524 33.6723 35.5251 33.6607C35.0015 33.6423 34.4604 33.6233 33.9282 33.6233L33.8162 33.6237L33.7043 33.6242C32.5813 33.6362 31.6742 33.7531 30.8492 33.9919C29.4968 34.3836 28.1603 35.1515 26.8764 36.2746C26.3397 36.7435 25.8029 37.2888 25.2353 37.9414C24.7593 38.4886 24.2854 39.095 23.7868 39.7955C23.3868 40.3556 22.9707 40.9821 22.5143 41.7111C22.0226 42.4983 21.5952 43.2248 21.2077 43.9318C20.3277 45.5373 19.5595 47.2117 18.9245 48.9088C18.6098 49.7505 18.319 50.6279 18.0608 51.5159C17.9378 51.9354 17.8192 52.3727 17.6983 52.8526C17.6431 53.0715 17.5898 53.2908 17.5366 53.5104L17.4255 53.965C17.2268 54.7677 17.0503 55.4925 16.9021 56.2337C16.7176 57.1549 16.6161 57.9243 16.5823 58.6557C16.5427 59.5184 16.612 60.2501 16.7944 60.8924C16.8824 61.2032 16.9822 61.4486 17.1083 61.6649C17.2245 61.8641 17.3699 62.0563 17.5404 62.2356C17.8641 62.5742 18.2722 62.8612 18.788 63.1127C19.2435 63.3358 19.7573 63.5019 20.3593 63.6208C20.822 63.713 21.3062 63.7594 21.7985 63.7594C21.8858 63.7594 21.9729 63.7581 22.0604 63.7552C22.6455 63.7353 23.1996 63.6495 23.7078 63.5002C24.2377 63.3439 24.7078 63.1191 25.105 62.8321C25.2953 62.6948 25.4715 62.5329 25.6439 62.3365C25.8275 62.1281 25.9892 61.8689 26.1385 61.5434C26.2985 61.1932 26.372 60.8219 26.3517 60.4701C26.3335 60.1676 26.2457 59.8618 26.0829 59.5356C25.9246 59.2204 25.7129 58.9275 25.5098 58.6543L25.3274 58.4114C25.1698 58.2025 25.0066 57.986 24.855 57.7669C24.9332 57.6877 25.0085 57.6091 25.0864 57.5312L25.3565 57.2645C25.5344 57.0909 25.714 56.9198 25.8944 56.7497C25.9795 56.6687 26.0648 56.5892 26.1507 56.5089L26.2039 56.4599L26.2249 56.4399L26.3057 56.364L26.4631 56.2177L26.7713 55.9327C26.9808 55.7388 27.1907 55.5448 27.4002 55.3498L27.4319 55.3198C27.9689 54.8192 28.3754 54.4282 28.7504 54.0537C29.6041 53.1978 30.2549 52.4489 30.7985 51.6965C30.9753 51.452 31.1404 51.206 31.2886 50.9654C31.5233 51.2174 31.7801 51.4678 32.0481 51.7105C32.3885 52.0192 32.7775 52.3368 33.2717 52.7105C34.055 53.3035 34.8844 53.8512 35.7372 54.3385C37.3821 55.2798 39.1635 55.9997 41.0318 56.4785C42.8231 56.9375 44.763 57.1739 46.7973 57.1814H46.8943C48.7919 57.1814 50.6333 56.976 52.3677 56.5713C54.1137 56.1637 55.783 55.5302 57.3293 54.6874C58.8805 53.8429 60.3184 52.7584 61.6027 51.4643C62.2601 50.8019 62.8724 50.0843 63.4218 49.3313C63.9557 48.5986 64.4332 47.7957 64.8414 46.9446C65.6338 45.291 66.1476 43.4805 66.368 41.5627C66.6791 38.8629 66.3658 36.137 65.4613 33.6796C65.4412 33.6237 65.3939 33.5811 65.3377 33.5679C65.3147 33.5237 65.2707 33.4924 65.2214 33.4847C64.9898 33.451 64.7492 33.4344 64.4855 33.4344Z" fill="#5C4978"/>
<path d="M33.9285 33.6141H33.8164L33.7045 33.615C32.5816 33.627 31.6731 33.7444 30.8462 33.9843C29.4938 34.3755 28.1559 35.1436 26.87 36.2681C26.34 36.7311 25.8033 37.2766 25.2289 37.9357C24.7512 38.4845 24.2775 39.0915 23.7804 39.7913C23.3822 40.3469 22.9659 40.9736 22.5079 41.7067C22.0114 42.5009 21.5837 43.2272 21.2002 43.9275C20.32 45.5338 19.5517 47.2084 18.9171 48.9053C18.7534 49.339 18.5881 49.81 18.4263 50.3052C18.4714 50.2288 18.5112 50.1504 18.551 50.0721L18.6312 49.9151C18.807 49.5771 18.9501 49.3105 19.0819 49.0756C19.2119 48.844 19.3453 48.6146 19.4786 48.3854C19.7154 47.9785 19.9532 47.5724 20.1952 47.1688C20.7534 46.2389 21.234 45.4747 21.7067 44.7635C23.0677 42.7226 24.326 41.1741 25.6665 39.8898C26.0473 39.5245 26.4138 39.2012 26.7872 38.9015C27.2098 38.5622 27.6116 38.2695 28.0159 38.0073C28.8974 37.437 29.7895 36.9975 30.667 36.7009C31.1561 36.5358 31.6348 36.4093 32.0897 36.3248C32.7 36.209 33.286 36.1497 33.8319 36.1479L33.8985 36.147C34.2194 36.147 34.5092 36.1593 34.7842 36.1845C35.1132 36.2136 35.4137 36.251 35.7033 36.2992C36.272 36.3924 36.8843 36.5279 37.5758 36.7129C37.9895 36.8241 38.4017 36.943 38.8128 37.0618C39.019 37.1216 39.2244 37.1807 39.4304 37.2389C40.123 37.4357 40.7079 37.5931 41.3109 37.7203C41.4896 37.7595 41.6699 37.7956 41.8497 37.828C42.0138 37.8571 42.178 37.8836 42.3422 37.9092C42.7071 37.9648 43.0475 38.0117 43.3829 38.0519C43.8106 38.1012 44.1792 38.1377 44.51 38.1633C44.8394 38.1885 45.1873 38.2084 45.5439 38.2222C45.8424 38.2325 46.1443 38.2378 46.4359 38.2378C47.1125 38.2378 47.7694 38.2091 48.3883 38.1528C48.9139 38.1049 49.393 38.0451 49.8532 37.9698C50.3045 37.8956 50.7627 37.805 51.2154 37.7006C52.0317 37.5055 52.7514 37.2923 53.4158 37.0489C53.7954 36.9108 54.1342 36.7746 54.4514 36.6332C54.7923 36.4813 55.1241 36.3187 55.4376 36.1501C55.9391 35.8763 56.3719 35.6063 56.7606 35.3248C56.9763 35.1694 57.1698 35.0208 57.3523 34.8706C57.5522 34.7053 57.7372 34.5423 57.9178 34.372L57.9742 34.3172L57.8455 34.3308C57.58 34.3669 57.3173 34.4026 57.0533 34.4359C56.1302 34.5526 55.1716 34.6108 54.2735 34.6565C52.9833 34.7229 51.6484 34.7566 50.3059 34.7566C49.3366 34.7566 48.3705 34.7397 47.4347 34.7069L47.4113 34.7078C43.9163 34.5795 40.2893 34.2244 36.6308 33.6526L36.6056 33.6509C36.5684 33.6509 36.5306 33.6629 36.5019 33.6837C36.2725 33.6774 36.038 33.6697 35.8038 33.6612L35.6626 33.6568L35.5258 33.6518L35.4507 33.6491C34.9792 33.6327 34.4446 33.6141 33.9285 33.6141Z" fill="#54436F"/>
<path d="M21.061 56.7794L21.0754 56.7777C20.5547 56.8272 20.0427 56.9419 19.5525 57.124L19.5654 57.1187C19.16 57.2729 18.7737 57.4712 18.4197 57.7201L18.4204 57.7199L18.4212 57.7192L18.4204 57.7199C18.2726 57.8256 18.1294 57.9383 17.9964 58.062C17.8689 58.1791 17.7492 58.3041 17.6371 58.4357L17.6466 58.4254C17.5456 58.546 17.4517 58.6716 17.367 58.8034C17.2835 58.9337 17.208 59.0692 17.1409 59.2084L17.1407 59.2086L17.1361 59.218C17.0704 59.3592 17.0121 59.5046 16.9651 59.6541C16.9181 59.8031 16.8813 59.9551 16.8531 60.1083C16.8224 60.2852 16.8036 60.4631 16.7967 60.6418C16.7938 60.7311 16.7938 60.8208 16.7963 60.9101C16.8833 61.2144 16.982 61.4561 17.1054 61.6671C17.2208 61.8663 17.3662 62.0587 17.5372 62.2391C17.863 62.5786 18.2718 62.8658 18.7864 63.1164C19.2397 63.3389 19.7544 63.5054 20.359 63.6261C20.8216 63.7176 21.3064 63.7646 21.7989 63.7646C21.8862 63.7646 21.9734 63.7629 22.0605 63.7602C22.6445 63.7405 23.1996 63.6543 23.7101 63.5037C24.2401 63.3474 24.7096 63.1224 25.1072 62.836C25.2987 62.6983 25.4758 62.5359 25.6477 62.34C25.8333 62.1279 25.9948 61.868 26.1428 61.5456C26.3027 61.1951 26.3771 60.823 26.3574 60.4699C26.3376 60.1639 26.2488 59.8579 26.0863 59.5337C25.9281 59.2156 25.7076 58.912 25.5135 58.6511L25.3314 58.4083C25.2388 58.2857 25.1475 58.164 25.0582 58.0423C25.0017 57.9904 24.9444 57.9396 24.8859 57.8899L24.885 57.8893L24.8859 57.8899L24.8867 57.8902L24.8842 57.8884L24.885 57.8893L24.8837 57.888L24.8773 57.8834L24.8811 57.8856L24.8756 57.8807L24.8773 57.8834C24.7232 57.756 24.5652 57.6371 24.3975 57.5292C24.2261 57.4202 24.0487 57.3212 23.8658 57.2341L23.8614 57.2326L23.8645 57.2335L23.8588 57.231C23.6391 57.1299 23.4142 57.0428 23.1824 56.9751C22.9952 56.9204 22.8063 56.876 22.6148 56.841C22.2827 56.7827 21.9464 56.7545 21.61 56.7545C21.4271 56.7545 21.2435 56.7628 21.061 56.7794Z" fill="white"/>
<path d="M23.8653 57.2342L23.8657 57.2343L23.8645 57.2338L23.8653 57.2342Z" fill="white"/>
<path d="M24.8833 57.888L24.8811 57.8859L24.8833 57.888Z" fill="white"/>
<path d="M24.8838 57.8875L24.8843 57.8884L24.8838 57.8875Z" fill="white"/>
<path d="M17.1387 59.2121L17.1403 59.2093L17.1405 59.2091L17.1415 59.2067L17.1387 59.2121Z" fill="white"/>
<path d="M61.066 38.7377L61.0592 38.7445L61.066 38.7377ZM63.2971 37.5005H63.3115C63.2115 37.5029 63.1108 37.5108 63.0114 37.5279C62.9122 37.5449 62.8139 37.5679 62.7172 37.5962L62.7318 37.5929C62.6112 37.6297 62.4939 37.6741 62.3805 37.7279C62.2649 37.7827 62.1537 37.8433 62.0451 37.9101L62.039 37.9144C61.8656 38.0254 61.6997 38.1487 61.5432 38.2829C61.3764 38.4265 61.2181 38.5786 61.066 38.7377L61.0686 38.7342C60.6387 39.1926 60.2613 39.6989 59.9124 40.2204C59.581 40.7164 59.2721 41.2277 58.9685 41.7417C58.8196 41.993 58.6727 42.2446 58.5204 42.4941C58.4521 42.6053 58.3844 42.7156 58.3135 42.8242C58.21 42.9833 58.1049 43.1407 57.9987 43.297C57.5106 44.0196 57.0051 44.7311 56.4682 45.4186C55.4601 46.7047 54.3409 47.9163 53.0487 48.9219C52.4119 49.4171 51.7379 49.8661 51.0289 50.2516C50.2756 50.662 49.4865 51.0074 48.6733 51.2819C48.2528 51.424 47.8268 51.5505 47.3966 51.6582C46.9111 51.7797 46.421 51.8892 45.9285 51.9807C44.9382 52.1661 43.938 52.2944 42.933 52.3576C41.9412 52.4194 40.946 52.4244 39.9548 52.3629C38.9501 52.3007 37.9495 52.1772 36.9629 51.9798C35.9942 51.7874 35.0372 51.5317 34.1062 51.2025C33.634 51.0357 33.1671 50.8535 32.7098 50.6502C32.2959 50.4674 31.8894 50.2702 31.4895 50.0587C31.499 50.1758 31.5014 50.294 31.4937 50.4116C31.4834 50.5768 31.4605 50.741 31.421 50.9015C31.4079 50.9549 31.3934 51.0081 31.3779 51.0608C31.5729 51.2701 31.7979 51.4888 32.0446 51.7138C32.3848 52.0216 32.774 52.3397 33.2689 52.7142C34.0589 53.3112 34.8892 53.8593 35.7357 54.3424C37.381 55.2839 39.162 56.0039 41.0305 56.4817C42.8236 56.943 44.7639 57.1796 46.7973 57.1864H46.8947C48.7921 57.1864 50.6349 56.9804 52.3697 56.575C54.1169 56.1672 55.7867 55.5335 57.3311 54.6913C58.8855 53.8455 60.3239 52.7604 61.6065 51.4676C62.2588 50.8109 62.8711 50.0935 63.4253 49.335C63.9597 48.6004 64.4377 47.7968 64.8456 46.9466C65.2724 46.0556 65.6187 45.1183 65.8819 44.1427C65.9315 43.8725 65.9725 43.6015 66.0042 43.3288C66.0666 42.7918 66.0964 42.2513 66.0854 41.71L66.0863 41.7135C66.0701 41.043 65.9913 40.3701 65.8015 39.7254L65.8024 39.7278L65.8015 39.7248C65.7442 39.5372 65.68 39.3526 65.5999 39.1738C65.5279 39.0122 65.4467 38.8566 65.3536 38.706L65.3587 38.7139C65.2928 38.6095 65.2225 38.5077 65.1448 38.412C65.0671 38.317 64.9839 38.2264 64.895 38.1425V38.1417V38.1425H64.8968C64.8191 38.0699 64.737 38.0009 64.6496 37.9392C64.5711 37.8836 64.4907 37.8324 64.4069 37.7851C64.3119 37.7338 64.2138 37.6868 64.1127 37.6483C64.0229 37.6141 63.9316 37.5861 63.8373 37.5611C63.7493 37.5397 63.6595 37.5226 63.5689 37.5132C63.4857 37.5047 63.4028 37.5003 63.3198 37.5003L63.2971 37.5005Z" fill="white"/>
<path d="M62.0427 37.912L62.0452 37.9107L62.0454 37.9103L62.0427 37.912Z" fill="white"/>
<path d="M62.039 37.9144L62.0392 37.9142L62.0426 37.9119L62.039 37.9144Z" fill="white"/>
<path d="M32.3346 46.525C32.3099 46.7182 32.2961 46.9131 32.2764 47.1064C32.2552 47.3159 32.2287 47.5245 32.1961 47.7324C32.1374 48.1116 32.0514 48.4848 31.9459 48.853C31.8165 49.2928 31.656 49.722 31.4702 50.1412C31.2775 50.5729 31.0538 50.9912 30.8128 51.3973L30.8262 51.3741C30.6475 51.6718 30.4587 51.9616 30.2569 52.2438C30.0549 52.5268 29.8379 52.7978 29.6162 53.0655C29.1632 53.6128 28.6714 54.1292 28.1602 54.6226L28.1754 54.6073C27.3622 55.3888 26.5054 56.1234 25.6384 56.8434C25.6155 56.8631 25.6083 56.8955 25.6263 56.9202C25.6437 56.9434 25.6804 56.9511 25.7033 56.9322C26.5696 56.214 27.4434 55.5017 28.2714 54.7382C28.685 54.3566 29.0914 53.9668 29.4794 53.5598C29.8669 53.1527 30.2321 52.7269 30.5784 52.2841C30.8749 51.9034 31.1513 51.5076 31.3984 51.0919C31.6447 50.6791 31.8592 50.248 32.0413 49.8026C32.2302 49.3389 32.3773 48.8585 32.4868 48.3703C32.5544 48.0702 32.6065 47.7666 32.6485 47.4621C32.6904 47.1552 32.7228 46.8439 32.7168 46.5344C32.7133 46.5002 32.7015 46.4685 32.6809 46.4402C32.651 46.3993 32.6048 46.3711 32.5544 46.3634L32.5268 46.3612C32.4347 46.3612 32.3471 46.43 32.3346 46.525Z" fill="#4A3960"/>
<path d="M19.6025 60.1291C19.6316 60.5336 19.6179 60.9373 19.5657 61.3392L19.5707 61.305C19.5316 61.5957 19.4751 61.8838 19.4015 62.1669C19.3244 62.4628 19.2176 62.7491 19.1005 63.0295C19.0723 63.0963 19.0424 63.1631 19.0125 63.2272C19.0808 63.2555 19.1502 63.2837 19.2194 63.3102L19.2369 63.317C19.2577 63.324 19.2786 63.3312 19.2997 63.3384C19.34 63.3518 19.3806 63.3647 19.4213 63.3767C19.477 63.1576 19.5362 62.9391 19.5863 62.7185C19.6513 62.4311 19.7111 62.1421 19.7572 61.8505C19.8479 61.2829 19.8711 60.7031 19.8282 60.1291C19.824 60.0685 19.7801 60.0172 19.7154 60.0172C19.6572 60.0172 19.598 60.0685 19.6025 60.1291Z" fill="#4A3960"/>
<path d="M22.7486 59.7784C22.6827 59.7963 22.6357 59.8708 22.6571 59.9382C22.8204 60.436 22.9358 60.9447 23.007 61.4637C23.0546 61.8365 23.0863 62.2102 23.0976 62.5856C23.1026 62.7798 23.1009 62.973 23.0949 63.167C23.0899 63.331 23.0794 63.4943 23.073 63.6584C23.1477 63.6468 23.2223 63.6341 23.2969 63.6203C23.3867 63.6035 23.4763 63.5853 23.5651 63.565C23.5799 63.308 23.5689 63.0488 23.5515 62.7925C23.5286 62.4573 23.483 62.1239 23.425 61.7929C23.3677 61.4663 23.2864 61.1448 23.1994 60.825C23.112 60.5036 23.0137 60.1853 22.9084 59.869C22.8899 59.8125 22.8401 59.7731 22.7828 59.7731L22.7486 59.7784Z" fill="#4A3960"/>
<path d="M25.7156 37.6227L25.7141 37.6242L25.7268 37.6113L25.7156 37.6227ZM28.8564 35.0333C28.3374 35.3163 27.8406 35.6352 27.3626 35.9835C26.8683 36.3436 26.399 36.7378 25.9501 37.1524C25.4967 37.5695 25.0692 38.0136 24.6572 38.4709C24.4501 38.6999 24.2509 38.9387 24.0559 39.1788C23.8619 39.4177 23.6728 39.6604 23.4906 39.9073C23.1265 40.4007 22.7886 40.9141 22.4809 41.4442C22.3125 41.735 22.1508 42.0296 21.9875 42.324C21.8089 42.6436 21.6309 42.9634 21.4557 43.2841L21.4612 43.2743C21.2636 43.6379 21.0683 44.0034 20.8827 44.3734C20.7879 44.5627 20.6964 44.7543 20.6075 44.9458C20.5134 45.15 20.4278 45.3576 20.338 45.5638C20.3201 45.6067 20.3449 45.6581 20.3868 45.6732C20.433 45.6912 20.4757 45.6667 20.4963 45.6255C20.6185 45.3858 20.7502 45.1509 20.8776 44.9147C21.0118 44.665 21.146 44.4156 21.2821 44.1667L21.2649 44.1967C21.6044 43.5757 21.9499 42.9591 22.3064 42.3477C22.6221 41.8085 22.941 41.2711 23.2803 40.7464C23.9482 39.7123 24.687 38.7242 25.5267 37.8229C25.5888 37.7564 25.6512 37.6905 25.7141 37.6242L25.7132 37.6253L25.7156 37.6227L25.7302 37.6073L25.7268 37.6113C26.565 36.7455 27.5006 35.9651 28.5337 35.3432C28.6546 35.2714 28.7765 35.202 28.9 35.1342C28.9257 35.1197 28.9411 35.0915 28.9282 35.0626C28.9205 35.0431 28.8986 35.0284 28.8767 35.0284L28.8564 35.0333Z" fill="#4A3960"/>
<path d="M51.5442 46.905C51.0158 46.905 50.4475 46.9584 49.8072 47.0683C48.5864 47.2749 47.3945 47.653 46.1796 48.0551L45.735 48.202C45.506 48.2779 45.277 48.3537 45.0474 48.4281C44.9191 48.4697 44.79 48.5102 44.661 48.5509C44.3951 48.6345 44.1199 48.7212 43.8528 48.8164C43.0385 49.1069 42.2465 49.4865 41.4992 49.9442C41.4716 49.9608 41.4495 49.9856 41.4351 50.0154L41.4081 50.0361C41.3744 50.0699 41.3641 50.1062 41.3589 50.1537C41.2173 51.3774 41.196 52.7118 41.2939 54.2329C41.3482 55.0731 41.4412 55.9756 41.5778 56.9924L41.5811 57.0215C41.6402 57.4543 41.7034 57.8869 41.7702 58.3188C41.858 58.8886 41.9626 59.5516 42.0907 60.2077C42.2284 60.9117 42.3823 61.5189 42.562 62.0642C42.6579 62.3562 42.7736 62.6552 42.9059 62.9529C43.0355 63.2449 43.1659 63.494 43.3047 63.7151C43.5569 64.1179 43.8721 64.4747 44.2412 64.7759C44.9112 65.3238 45.7844 65.6986 46.7664 65.8606C47.1559 65.925 47.5626 65.9574 47.975 65.9574C48.5069 65.9574 49.059 65.9035 49.6163 65.7973C50.1078 65.7041 50.5723 65.5736 50.9969 65.4099C51.5094 65.2116 51.906 64.9725 52.2092 64.6794C52.4774 64.418 52.6711 64.0879 52.77 63.7248C52.8578 63.401 52.874 63.0357 52.8195 62.6081C52.7722 62.2354 52.6807 61.8451 52.5229 61.342C52.4526 61.1163 52.3756 60.8933 52.297 60.67C52.1959 60.3815 52.1217 60.0698 52.0704 59.7171C51.9461 58.7552 52.047 57.775 52.1446 56.8267L52.1578 56.6989L52.2035 56.2361C52.2401 55.8629 52.2769 55.4899 52.3184 55.1171C52.3769 54.5906 52.4441 54.0464 52.5238 53.4541C52.6551 52.4795 52.8119 51.4632 52.9889 50.4339C53.0739 49.9372 53.1617 49.4232 53.2676 48.9222C53.3197 48.6759 53.3762 48.4307 53.4324 48.1851C53.4926 47.9231 53.5528 47.6611 53.608 47.3975C53.6275 47.3029 53.5782 47.2171 53.4909 47.1933C53.4664 47.1707 53.4408 47.1552 53.4132 47.148C52.8686 46.9954 52.2723 46.9139 51.6407 46.9058C51.6083 46.905 51.5759 46.905 51.5442 46.905Z" fill="#5C4978"/>
<path d="M48.39 58.1833C48.2044 58.1841 48.0207 58.1968 47.8369 58.2209L47.8513 58.2183C47.6427 58.2465 47.4358 58.2883 47.2331 58.3448C47.0278 58.4022 46.8268 58.4722 46.6311 58.5552L46.6353 58.5525C46.4155 58.6467 46.2027 58.7526 45.9983 58.8759C45.7991 58.9947 45.6067 59.1254 45.4228 59.2657H45.4237L45.4213 59.2673L45.4171 59.2705L45.4151 59.2716L45.4171 59.2705L45.4195 59.2684L45.4138 59.273L45.4151 59.2716L45.4125 59.2743L45.4138 59.273C45.2065 59.4352 45.0095 59.6083 44.8252 59.7959C44.6422 59.9798 44.4712 60.1755 44.3121 60.3808C44.147 60.5956 43.9958 60.8195 43.8598 61.0528C43.7287 61.2799 43.6107 61.5136 43.5067 61.7547L43.5074 61.7531L43.5046 61.7601L43.5015 61.7669V61.7665C43.3993 62.0103 43.3106 62.2586 43.2423 62.5134C43.1731 62.7664 43.1202 63.0221 43.0843 63.2822V63.2795L43.0784 63.3246C43.1506 63.4649 43.2246 63.5947 43.3014 63.7165C43.5545 64.121 43.8692 64.4785 44.2377 64.7794C44.9073 65.3267 45.782 65.7019 46.7662 65.8654C47.1578 65.9293 47.5648 65.9628 47.9752 65.9628C48.5054 65.9628 49.057 65.9081 49.617 65.8019C50.1139 65.7072 50.579 65.5762 50.9989 65.4129C51.5111 65.2155 51.9078 64.9769 52.2123 64.6827C52.4806 64.4193 52.6757 64.0892 52.774 63.7267C52.8622 63.4019 52.8793 63.0359 52.8245 62.6084C52.7757 62.233 52.6842 61.8422 52.5262 61.3403C52.4559 61.1144 52.3791 60.8913 52.3003 60.668C52.2768 60.601 52.255 60.5325 52.2344 60.4631C52.149 60.3329 52.0595 60.2057 51.9651 60.0825C51.8104 59.883 51.6436 59.6932 51.4641 59.5173C51.3128 59.3684 51.1545 59.229 50.9877 59.0998C50.8297 58.9785 50.6646 58.8638 50.4926 58.7638C50.326 58.6664 50.1533 58.579 49.9753 58.5031L49.9891 58.5081C49.8173 58.4363 49.6419 58.3739 49.4631 58.326C49.288 58.2789 49.1117 58.243 48.9322 58.2183L48.9353 58.2185C48.76 58.1957 48.5842 58.1833 48.4075 58.1833H48.39Z" fill="white"/>
<path d="M45.4215 59.267L45.4231 59.2654L45.4215 59.267Z" fill="white"/>
<path d="M41.5123 50.0418L41.509 50.0598L41.5143 50.0318L41.5123 50.0418ZM41.2847 49.3523C41.238 49.377 41.1866 49.4276 41.1748 49.4815C41.0507 50.044 40.9806 50.6204 40.9427 51.195C40.9027 51.8012 40.9088 52.4102 40.9344 53.0172C40.948 53.3311 40.9721 53.6439 40.9994 53.956C41.0121 54.1049 41.0277 54.2546 41.0439 54.4033C41.0616 54.5642 41.0848 54.7248 41.1045 54.8855C41.1796 55.4951 41.2799 56.1024 41.3996 56.7052C41.462 57.0174 41.5268 57.3293 41.5962 57.6406C41.6621 57.9366 41.7319 58.2314 41.8024 58.5265C41.8184 58.5959 41.9254 58.5727 41.9092 58.5035C41.7689 57.9101 41.6594 57.3081 41.5714 56.7044C41.4784 56.0584 41.4031 55.4098 41.3503 54.7592C41.3361 54.5709 41.3271 54.382 41.3164 54.1929C41.3037 53.9817 41.2969 53.7698 41.2901 53.5576C41.2763 53.1498 41.2748 52.7418 41.2884 52.334C41.3136 51.5726 41.3709 50.8102 41.509 50.0598L41.5055 50.0767L41.5123 50.0418L41.5167 50.0184L41.5143 50.0318C41.5412 49.8954 41.5714 49.7599 41.6023 49.6242L41.613 49.5644C41.615 49.5241 41.6073 49.4856 41.5885 49.4497C41.562 49.3976 41.515 49.3573 41.4594 49.3394C41.4366 49.3315 41.4121 49.3276 41.3882 49.3276C41.3527 49.3276 41.3168 49.3361 41.2847 49.3523Z" fill="#4A3960"/>
<path d="M53.5141 46.6261C53.4723 46.7877 53.4405 46.9518 53.4072 47.1151C53.3705 47.2948 53.3328 47.4743 53.2969 47.6538C53.2269 48.0028 53.1627 48.3526 53.101 48.703C52.978 49.4059 52.8703 50.1106 52.7735 50.8176C52.677 51.5214 52.5896 52.2269 52.5128 52.9331C52.4366 53.6395 52.3699 54.3474 52.3051 55.0556C52.1724 56.4988 52.0595 57.944 51.9253 59.3874C51.9227 59.4172 51.9509 59.443 51.9791 59.4439C52.0109 59.4439 52.0321 59.4198 52.0347 59.3899C52.0962 58.7393 52.1597 58.0876 52.2289 57.4377C52.2989 56.7862 52.3742 56.1348 52.4513 55.484C52.5281 54.8323 52.6111 54.1815 52.7008 53.5318C52.7915 52.8819 52.8856 52.2328 52.9874 51.5847L52.9813 51.6267C52.9922 51.5553 53.0036 51.4846 53.015 51.4137L53.0148 51.4163L53.0211 51.3769L53.0215 51.3734V51.3739C53.1446 50.6022 53.279 49.833 53.4261 49.0664C53.5012 48.6757 53.5791 48.2858 53.6612 47.896C53.7021 47.7027 53.7424 47.5085 53.7859 47.3152C53.8295 47.1263 53.8801 46.9383 53.9177 46.7476L53.9263 46.6911C53.9271 46.6543 53.9186 46.6193 53.9015 46.5867C53.8748 46.5381 53.8295 46.5013 53.7757 46.4849L53.7179 46.4768C53.6275 46.4768 53.5379 46.5346 53.5141 46.6261Z" fill="#4A3960"/>
<path d="M47.2955 63.4363L47.2981 63.4507L47.2955 63.4363ZM47.3178 63.0488C47.2631 63.0635 47.2382 63.1173 47.2485 63.1703C47.2682 63.266 47.2852 63.3627 47.299 63.4601C47.3546 63.8979 47.3537 64.3401 47.3014 64.7779V64.772C47.2493 65.1634 47.1528 65.5482 47.0031 65.9142L47.0022 65.9177C47.0692 65.9265 47.1364 65.9346 47.2036 65.9423C47.2706 65.9475 47.3378 65.9523 47.405 65.9565C47.4461 65.7914 47.4796 65.6262 47.505 65.4585C47.5462 65.1925 47.5691 64.9241 47.5768 64.6547C47.5921 64.1392 47.5418 63.6228 47.4391 63.1173C47.4297 63.0738 47.3853 63.0455 47.3426 63.0455L47.3178 63.0488Z" fill="#4A3960"/>
<path d="M50.0563 62.5556C50.0254 62.5736 50.016 62.6138 50.0333 62.6447C50.0957 62.7566 50.152 62.8704 50.2017 62.9884L50.2008 62.9858L50.2043 62.9934V62.9943C50.342 63.3373 50.4256 63.6972 50.477 64.0632C50.5112 64.3309 50.5291 64.6002 50.5335 64.8696C50.5359 65.1098 50.5309 65.3528 50.5129 65.5938L50.5703 65.5784C50.5985 65.5703 50.627 65.5622 50.6554 65.5537C50.7612 65.5169 50.8658 65.4771 50.9698 65.4353C50.9637 65.2722 50.9536 65.1096 50.9354 64.9456C50.9046 64.6652 50.8566 64.3865 50.7866 64.1129C50.6498 63.5742 50.4171 63.0628 50.1452 62.5788C50.134 62.5582 50.1119 62.548 50.0896 62.548L50.0563 62.5556Z" fill="#4A3960"/>
<path d="M50.2031 62.9941L50.2029 62.9937L50.201 62.9892L50.2031 62.9941Z" fill="#4A3960"/>
<path d="M40.2521 3.37505C40.188 3.37505 40.121 3.38161 40.0415 3.39475C39.9546 3.40963 39.8647 3.43875 39.7502 3.4891C39.6532 3.532 39.5562 3.58629 39.454 3.65524C39.2763 3.7752 39.097 3.92952 38.8901 4.14011C38.7165 4.31698 38.5567 4.50348 38.37 4.72939C37.5787 5.69366 36.911 6.62246 36.329 7.56965C35.6436 8.68605 35.0954 9.81187 34.6997 10.9169C34.261 12.1416 34.0276 13.3397 34.0062 14.4771C33.995 15.0706 34.0491 15.669 34.1669 16.2564C34.2619 16.7329 34.4011 17.1876 34.5799 17.6068C34.7802 18.0765 35.0376 18.4708 35.345 18.7799C35.6858 19.1224 36.1114 19.3532 36.5757 19.4464C36.6151 19.4543 36.6545 19.4602 36.6947 19.4663L36.7418 19.4703C36.772 19.4703 36.7974 19.4635 36.8219 19.449C36.8475 19.4333 36.8692 19.4112 36.8841 19.3849L36.9093 19.3877C36.9552 19.3877 36.9955 19.3707 37.0224 19.3392C38.5701 17.5135 39.9647 15.3173 41.1674 12.8106C41.6179 11.8722 42.0578 10.8549 42.4749 9.78691C42.4913 9.7451 42.4779 9.69082 42.4584 9.65842C42.4365 9.50891 42.4221 9.37363 42.4077 9.23813C42.3915 9.08621 42.3753 8.93429 42.3612 8.78215C42.3422 8.57441 42.3256 8.36667 42.3089 8.15872L42.2954 7.99389C42.25 7.44751 42.1953 6.86391 42.1021 6.2952C41.9974 5.65732 41.8573 5.14881 41.6616 4.69503C41.5404 4.41264 41.4071 4.17667 41.2543 3.97353C41.073 3.73098 40.8834 3.56658 40.6746 3.47026C40.5763 3.42473 40.4741 3.39606 40.3618 3.38205C40.325 3.37767 40.2889 3.37505 40.2521 3.37505Z" fill="#5C4978"/>
<path d="M39.6819 6.63517C39.6425 6.63517 39.6022 6.63867 39.551 6.64721C39.4934 6.65794 39.4371 6.67632 39.3682 6.70718C39.3082 6.73345 39.2482 6.76717 39.1847 6.81007C39.0779 6.88144 38.9663 6.97709 38.8338 7.1104C38.7275 7.21941 38.632 7.33062 38.5123 7.47466C38.0189 8.0773 37.6058 8.65235 37.2499 9.2331C36.823 9.9279 36.4841 10.6244 36.2425 11.3037C35.9699 12.0626 35.8253 12.8043 35.8115 13.5078C35.8045 13.8727 35.8384 14.2438 35.9115 14.6107C35.9702 14.9035 36.0564 15.1848 36.1681 15.4464C36.29 15.7343 36.4491 15.9792 36.6415 16.1741C36.8526 16.386 37.117 16.5293 37.4062 16.5884L37.4565 16.597L37.4815 16.6014L37.5108 16.6031L37.5633 16.5882L37.6043 16.5453L37.62 16.5458C37.6568 16.5458 37.6759 16.5363 37.6894 16.5193C38.6469 15.3904 39.5096 14.0314 40.2536 12.4803C40.5334 11.8978 40.8055 11.2687 41.0623 10.61C41.0745 10.5824 41.0653 10.5467 41.052 10.5253C41.0434 10.4587 41.0362 10.395 41.0292 10.3324L41.0224 10.2679C41.0121 10.1739 41.0019 10.0798 40.9942 9.98569C40.9839 9.88302 40.9754 9.78057 40.9668 9.67703L40.9607 9.59998L40.953 9.49841C40.9241 9.1589 40.8907 8.79815 40.8333 8.44812C40.7668 8.05016 40.6794 7.73493 40.5588 7.45561C40.4848 7.28158 40.4025 7.13514 40.3071 7.00796C40.1943 6.85736 40.0759 6.75491 39.9454 6.69515C39.8844 6.66647 39.8204 6.6483 39.7497 6.63955C39.7265 6.63692 39.7042 6.63517 39.6819 6.63517Z" fill="#F89F9E"/>
<path d="M56.3441 2.75558C56.2655 2.75733 56.2072 2.76411 56.1554 2.77791C56.1048 2.79148 56.0672 2.80593 56.0313 2.82323C56.0113 2.83264 55.9918 2.84358 55.9724 2.85562C55.9124 2.89415 55.8629 2.93771 55.8209 2.98981C55.7294 3.09685 55.667 3.23958 55.6293 3.42521C55.5969 3.57822 55.5849 3.74568 55.5934 3.93656C55.602 4.23492 55.6585 4.55649 55.7679 4.94898C55.8695 5.29945 55.9969 5.64924 56.1092 5.94936L56.146 6.04415L56.1733 6.11683C56.2101 6.21358 56.246 6.31034 56.281 6.40775C56.3143 6.49575 56.3452 6.58462 56.3758 6.67437L56.3979 6.7361L56.4614 6.92151C56.4579 6.94559 56.4658 6.98149 56.4859 6.99944C57.0019 7.48584 57.5174 7.93831 58.0176 8.3435C59.3531 9.42706 60.7138 10.2863 62.0614 10.8968L62.0887 10.902C62.1008 10.902 62.1152 10.8994 62.1511 10.8841C62.1673 10.8977 62.1859 10.9038 62.2144 10.9047L62.2555 10.8961L62.2809 10.8823L62.3017 10.8679L62.3415 10.8388C62.5784 10.661 62.7555 10.4189 62.8555 10.1385C62.9455 9.88107 62.9838 9.5919 62.9709 9.27997C62.9615 9.00196 62.9197 8.71126 62.847 8.41618C62.7555 8.05368 62.6272 7.70387 62.4659 7.37639C62.152 6.74705 61.7039 6.13916 61.1325 5.57045C60.6212 5.05756 60.0177 4.57269 59.338 4.1305C58.7691 3.75946 58.15 3.41667 57.4447 3.08153C57.2764 3.0036 57.1426 2.94362 56.9984 2.8889C56.8186 2.82476 56.6768 2.78732 56.5536 2.77003C56.4914 2.75996 56.4323 2.7547 56.3776 2.7547L56.3441 2.75558Z" fill="#F89F9E"/>
<path d="M40.0409 3.39016C39.9494 3.40636 39.8598 3.43634 39.7484 3.48581C39.6493 3.5285 39.5527 3.58257 39.4518 3.65174C39.2776 3.76885 39.0976 3.92297 38.8866 4.13662C38.7156 4.31108 38.5609 4.49146 38.3667 4.7259C37.5723 5.69367 36.9047 6.62334 36.3257 7.56813C35.6405 8.68212 35.0917 9.80838 34.6957 10.9149C34.257 12.1386 34.0239 13.3366 34.0014 14.4771C33.9913 15.069 34.0451 15.6684 34.1623 16.2572C34.2564 16.732 34.3956 17.1869 34.576 17.6085C34.7769 18.0796 35.0344 18.4747 35.3415 18.7834C35.6836 19.1255 36.1092 19.3565 36.5743 19.4512C36.6146 19.4587 36.654 19.4659 36.6941 19.4718C36.7206 19.4736 36.7319 19.4751 36.742 19.4751C36.7718 19.4751 36.7983 19.4674 36.8234 19.4521C36.8515 19.4357 36.8738 19.4127 36.8876 19.3862L36.9086 19.393C36.9565 19.393 36.9977 19.3751 37.0259 19.3427C37.3171 18.9992 37.603 18.6422 37.8827 18.2729C37.7551 18.2289 37.629 18.1803 37.5047 18.1267C37.2087 17.999 36.9224 17.8462 36.6599 17.6582C36.406 17.4761 36.1709 17.2666 35.9699 17.0254C35.7629 16.7782 35.5884 16.5046 35.456 16.2113C35.3848 16.0556 35.3235 15.8967 35.2738 15.7334C35.2005 15.4955 35.1464 15.2512 35.1097 15.0049C35.067 14.7157 35.0429 14.4241 35.0405 14.1317C35.037 13.8257 35.0523 13.5194 35.0849 13.2149C35.1515 12.5985 35.2765 11.9897 35.443 11.393C35.6109 10.7926 35.8152 10.2026 36.045 9.62296C36.1521 9.3535 36.2639 9.08599 36.3793 8.82003C36.4384 8.68475 36.4975 8.54968 36.5599 8.41725C36.654 8.2163 36.753 8.01885 36.8539 7.82118C36.9986 7.53989 37.1481 7.26035 37.3031 6.98409C37.4843 6.66012 37.6724 6.33856 37.8683 6.0229C38.0727 5.69454 38.2853 5.37122 38.5121 5.05841C38.7242 4.76596 38.9464 4.47963 39.1902 4.21257C39.3971 3.98623 39.6201 3.7682 39.8723 3.59198C39.9993 3.50398 40.1357 3.42387 40.281 3.37024L40.2523 3.36958C40.1921 3.36958 40.1265 3.37659 40.0409 3.39016Z" fill="#54436F"/>
<path d="M62.0596 10.9007C60.7085 10.2876 59.3472 9.42815 58.0143 8.34656C57.5209 7.94903 57.006 7.49655 56.4826 7.00227C56.4658 6.9887 56.4564 6.96134 56.4579 6.92281L56.3937 6.73719L56.3725 6.67567L56.3578 6.63212C56.3322 6.55769 56.306 6.48238 56.2775 6.40883C56.2427 6.3123 56.2066 6.21575 56.1698 6.11812L56.1424 6.04633L56.1059 5.95066C55.9927 5.6488 55.8644 5.29812 55.7653 4.95006C55.6532 4.55254 55.5969 4.23097 55.5884 3.93611L55.586 3.83082C55.586 3.67956 55.5985 3.5469 55.6243 3.42562C55.6602 3.24262 55.7235 3.09881 55.8174 2.98608C55.8587 2.93639 55.908 2.89282 55.9706 2.85167C55.9901 2.83985 56.01 2.82868 56.0433 2.81248C56.0748 2.79869 56.11 2.78687 56.1536 2.77483C56.2066 2.76016 56.2596 2.75338 56.3443 2.75009L56.3716 2.74922C56.429 2.74922 56.489 2.75426 56.5538 2.76455C56.6805 2.78337 56.818 2.82014 56.9994 2.88603C57.1343 2.9355 57.2652 2.99373 57.4467 3.07757C58.1528 3.41184 58.7717 3.75552 59.3395 4.12677C60.0179 4.56786 60.6214 5.05273 61.136 5.56759C61.7083 6.13695 62.1561 6.74506 62.4683 7.37528C62.6307 7.70364 62.7592 8.05322 62.8496 8.41419C62.9216 8.70227 62.9645 8.99298 62.9755 9.27952C62.9891 9.59233 62.9496 9.8815 62.8592 10.1396C62.8472 10.1748 62.8334 10.2099 62.8183 10.2431C62.7145 10.4809 62.5504 10.6877 62.3453 10.8416L62.3034 10.8707L62.2829 10.8854L62.2573 10.8998L62.2152 10.9092C62.1826 10.9075 62.1631 10.9007 62.1531 10.8878C62.1163 10.9025 62.1014 10.9075 62.087 10.9075L62.0596 10.9007ZM54.6219 2.67029e-05C54.498 0.00352955 54.4041 0.016223 54.3168 0.0411787C54.2424 0.0606604 54.1791 0.0838699 54.1176 0.112985C54.0841 0.129183 54.0537 0.147132 54.0217 0.166833C53.9254 0.226594 53.8448 0.296855 53.7748 0.379601C53.6275 0.556692 53.5268 0.787635 53.4653 1.086C53.4149 1.33314 53.395 1.60414 53.4055 1.91279C53.4224 2.40379 53.5139 2.92369 53.6934 3.54953C53.8593 4.12765 54.0758 4.71759 54.2459 5.16744L54.3041 5.3222L54.3453 5.43165C54.4048 5.5897 54.4648 5.74884 54.523 5.90776C54.5572 6.00014 54.5895 6.0934 54.6219 6.18665L54.6622 6.29872L54.6767 6.33965L54.6946 6.39175C54.7332 6.50383 54.7717 6.61679 54.8104 6.74157C54.805 6.77922 54.8179 6.83481 54.8503 6.86634C55.6823 7.65132 56.5155 8.38246 57.3258 9.04004C59.4895 10.7921 61.6903 12.1808 63.8675 13.1668C63.8835 13.1753 63.9023 13.1795 63.9246 13.1795C63.9485 13.1795 63.9726 13.1736 63.9938 13.1624L64.0168 13.1488C64.0358 13.1674 64.0656 13.1786 64.0974 13.1821C64.1374 13.1821 64.1591 13.1769 64.1803 13.1659L64.2221 13.1418C64.2563 13.1188 64.2889 13.0965 64.3222 13.0727C64.7035 12.7879 64.9894 12.3971 65.1492 11.9422C65.2961 11.5327 65.3602 11.0649 65.3407 10.5526C65.3234 10.1004 65.2543 9.62998 65.1356 9.15386C64.9924 8.57925 64.7856 8.0147 64.5187 7.47686C64.0129 6.45677 63.2885 5.47346 62.3682 4.55429C61.5353 3.72311 60.5573 2.93989 59.4621 2.22583C58.5324 1.61881 57.5312 1.06454 56.4016 0.531956C56.1363 0.407838 55.9124 0.307807 55.6797 0.222435C55.4069 0.120646 55.1786 0.0573759 54.9608 0.0238838C54.8557 0.00768566 54.7605 2.67029e-05 54.6716 2.67029e-05H54.6219Z" fill="#54436F"/>
<path d="M35.0919 26.5451C35.0939 26.4978 35.0959 26.4503 35.0981 26.4028L35.102 26.3719C35.0983 26.4299 35.095 26.4875 35.0919 26.5451ZM52.6558 5.33892C52.5231 5.33892 52.3905 5.34045 52.258 5.34483C51.3533 5.35271 50.4683 5.43655 49.6275 5.59372L49.5874 5.60839C48.4277 5.79183 47.2874 6.10945 46.199 6.55164C44.8265 7.10896 43.5247 7.87184 42.3299 8.81859C39.966 10.6917 38.1496 13.199 37.0774 16.07C36.8998 16.5445 36.7232 17.0574 36.5045 17.7323C36.3112 18.3255 36.1262 18.9389 35.9546 19.5553C35.5667 20.9495 35.266 22.3133 35.0611 23.6087C34.8216 25.1194 34.7191 26.4974 34.748 27.8213C34.7807 29.2676 34.9939 30.5838 35.3818 31.7339C35.5845 32.3355 35.8489 32.909 36.1678 33.4385C36.4809 33.9619 36.8699 34.4538 37.3232 34.9004C37.8512 35.419 38.49 35.8734 39.276 36.2904C39.9629 36.6549 40.7521 36.9668 41.6886 37.2439C42.3724 37.4462 43.1246 37.6183 43.9881 37.7697L44.017 37.7724C44.0411 37.7724 44.0656 37.7669 44.0877 37.7568C45.3278 37.9781 46.6784 38.09 48.1006 38.09C48.8994 38.09 49.7483 38.055 50.6233 37.9854C53.0529 37.7934 55.5865 37.3427 58.1537 36.6455C59.3216 36.3287 60.478 35.9616 61.5914 35.5542C62.1728 35.341 62.747 35.1164 63.2982 34.8864C63.9792 34.6027 64.5658 34.3268 65.0914 34.0431C65.5793 33.7789 66.0274 33.4941 66.423 33.1964C66.4834 33.1583 66.5412 33.1218 66.5983 33.0846C67.2036 32.6923 67.7813 32.2425 68.3156 31.7477C69.448 30.6983 70.282 29.5285 70.7951 28.2709C71.0639 27.6131 71.236 26.9203 71.3065 26.2115C71.3406 25.868 71.3465 25.5114 71.3244 25.1218C71.3045 24.7665 71.2568 24.4077 71.2082 24.0732C71.0145 22.7379 70.6461 21.34 70.1135 19.9178C69.6078 18.565 68.9476 17.2023 68.1508 15.8677C67.3686 14.5571 66.4725 13.3059 65.4872 12.1485C64.5012 10.9897 63.4262 9.9304 62.2923 9.00006C61.7304 8.53949 61.1431 8.10519 60.5459 7.70964C59.9216 7.29591 59.2868 6.92727 58.6594 6.61403C57.8779 6.22482 57.0266 5.91814 56.1289 5.7023C55.3349 5.51142 54.4764 5.39999 53.5776 5.37132C53.5331 5.36956 53.4887 5.3687 53.4441 5.36782C53.1941 5.34834 52.9362 5.33892 52.6558 5.33892Z" fill="#5C4978"/>
<path d="M46.1971 6.54771C44.8239 7.10526 43.5214 7.86791 42.3269 8.81532C39.9627 10.6898 38.1456 13.1977 37.0741 16.0682C36.9031 16.5231 36.726 17.0353 36.5012 17.7306C36.3038 18.3334 36.119 18.9474 35.9514 19.5536C35.5632 20.9456 35.2622 22.3096 35.056 23.6085C34.8168 25.1211 34.7141 26.4996 34.7432 27.8215C34.7756 29.2682 34.9895 30.586 35.3785 31.7359C35.5794 32.3355 35.8437 32.9092 36.1643 33.4403C36.4765 33.9626 36.8646 34.4551 37.3195 34.9041C37.8514 35.4249 38.4911 35.8789 39.2743 36.2937C39.9627 36.6597 40.7519 36.9716 41.6866 37.2479C42.3672 37.4488 43.1195 37.6216 43.9883 37.7746L44.0166 37.7772C44.0413 37.7772 44.0654 37.7713 44.0893 37.7601C45.3282 37.9825 46.6784 38.0953 48.1004 38.0953C48.6617 38.0953 49.2484 38.0775 49.8527 38.0427C49.6196 38.0287 49.3867 38.011 49.154 37.9893C48.327 37.9105 47.5028 37.7875 46.6922 37.6036C45.8738 37.4173 45.0675 37.177 44.2876 36.8683C43.5111 36.5621 42.757 36.1978 42.0423 35.7661C41.3042 35.3213 40.6039 34.8144 39.9549 34.2465C39.6094 33.9447 39.2769 33.6275 38.9707 33.2847C38.6859 32.9666 38.4193 32.6321 38.178 32.279C37.9385 31.9275 37.7205 31.5617 37.5307 31.1819C37.3495 30.8176 37.1888 30.4431 37.0535 30.06C36.9143 29.6634 36.7963 29.2597 36.7039 28.8493C36.6124 28.4439 36.5398 28.0343 36.4883 27.6221C36.3773 26.738 36.3456 25.8444 36.3712 24.9535C36.3935 24.1685 36.4653 23.3844 36.5851 22.6079C36.834 20.9902 37.2759 19.4032 37.8805 17.8818C38.4937 16.3392 39.264 14.8592 40.1808 13.4755C41.0973 12.0938 42.1518 10.8001 43.3411 9.64408C43.9242 9.07712 44.5365 8.54082 45.1811 8.04588C45.8278 7.54897 46.5031 7.08818 47.2069 6.67774C47.8572 6.29904 48.5297 5.95887 49.2236 5.66707C48.1876 5.85598 47.1708 6.15172 46.1971 6.54771Z" fill="#54436F"/>
<path d="M65.2643 20.7792C65.2588 20.7378 65.251 20.6976 65.2148 20.6617C65.1849 20.6308 65.1424 20.6131 65.098 20.6131C65.0531 20.6131 65.0113 20.6304 64.98 20.6617C64.9519 20.6897 64.9263 20.7392 64.9316 20.7799C64.7 20.8554 64.54 21.0441 64.4469 21.1923C64.2836 21.4534 64.197 21.761 64.1339 22.0274C64.0549 22.3597 64.0026 22.697 63.9577 23.0118L63.9277 23.2243C63.9021 23.4128 63.8754 23.6076 63.8353 23.7966C63.797 23.9614 63.7408 24.1201 63.6814 24.2821C63.6114 24.4695 63.5254 24.6628 63.426 24.8565C63.2285 25.226 62.989 25.567 62.7139 25.87C62.4319 26.1717 62.1113 26.4387 61.761 26.6642L61.7993 26.6456C61.4353 26.8702 61.0494 27.0532 60.649 27.1854C60.2142 27.3207 59.7412 27.3999 59.2029 27.4282C59.0593 27.4343 58.9304 27.4365 58.8014 27.4365C58.3172 27.4365 57.8265 27.4036 57.3519 27.3717C56.8615 27.3388 56.3716 27.3058 55.8894 27.3058C55.6628 27.3058 55.4549 27.3128 55.2539 27.3272C54.5602 27.3778 53.9328 27.5453 53.3891 27.8252C52.9515 28.0496 52.5549 28.3548 52.1713 28.6498C52.0369 28.7534 51.9027 28.8565 51.7666 28.9565C51.6427 29.0463 51.5179 29.1345 51.3896 29.2175C51.2846 29.284 51.1786 29.3473 51.07 29.4055C50.9516 29.4696 50.8286 29.5248 50.7025 29.5806C50.451 29.6923 50.1835 29.7947 49.9074 29.8849C49.3127 30.0736 48.7317 30.1835 48.1807 30.2115C48.1175 30.2137 48.054 30.2148 47.9905 30.2148C47.5376 30.2148 47.0508 30.157 46.5429 30.0432L46.5661 30.0523C45.9444 29.9028 45.3234 29.6695 44.7214 29.3541H44.7212L44.7278 29.36L44.7381 29.3683C44.0509 28.9999 43.3419 28.5062 42.5276 27.8211C42.1625 27.5135 41.8078 27.1937 41.4793 26.8934L41.3523 26.7767L41.2253 26.66L41.1951 26.6333L41.1553 26.5963L41.115 26.5591C41.0791 26.5252 41.0493 26.5046 41.0025 26.5004H40.9983C40.9462 26.5004 40.9103 26.5142 40.8812 26.5385C40.8607 26.5558 40.844 26.5786 40.8346 26.6027C40.7908 26.6184 40.7508 26.6397 40.7087 26.6683C40.6818 26.611 40.6242 26.5749 40.5619 26.5749L40.5187 26.5808C40.4756 26.593 40.4382 26.6232 40.4163 26.6637C40.395 26.7025 40.3904 26.746 40.4027 26.7863C40.4283 26.8708 40.4557 26.9547 40.4839 27.0385C40.4583 27.1512 40.4594 27.2664 40.464 27.3638C40.4703 27.5019 40.508 27.6335 40.5437 27.744C40.5573 27.7832 40.6013 27.8156 40.6367 27.8292L40.6941 27.839C40.7192 27.839 40.744 27.8336 40.7656 27.8231L40.7943 27.8058C40.8346 27.899 40.8799 27.9914 40.927 28.0829C41.1253 28.4692 41.3705 28.8517 41.6557 29.2196C42.176 29.8912 42.8338 30.4993 43.6109 31.0269C44.3178 31.5067 45.1485 31.9231 46.0802 32.2646C46.9264 32.5756 47.8596 32.8162 48.8534 32.9795C49.8621 33.1459 50.9024 33.2304 51.9446 33.2304C52.8265 33.2304 53.7201 33.17 54.6003 33.0504C55.5054 32.9274 56.3631 32.744 57.1496 32.5047C57.6021 32.3672 58.0624 32.1976 58.5574 31.9866C59.0823 31.7626 59.5956 31.5021 60.0831 31.2125C61.0483 30.6408 61.9072 29.9492 62.636 29.1575C63.3699 28.3596 63.9651 27.4586 64.4047 26.4794C64.756 25.696 65.008 24.8602 65.154 23.9958C65.228 23.5599 65.2772 23.1002 65.3002 22.6292C65.328 22.0416 65.3429 21.411 65.2643 20.7792Z" fill="#2F253E"/>
<path d="M56.8804 26.3906C56.4018 26.3906 55.8975 26.4308 55.3809 26.5103C54.2577 26.685 53.1588 27.0729 52.1146 27.6633C51.5026 28.0096 50.9043 28.4382 50.3365 28.9375H50.3323L50.2927 28.9449C50.2511 28.9589 50.2161 28.99 50.1966 29.0299L50.1811 29.0782C50.1482 29.1063 50.1299 29.1474 50.1299 29.1932C50.129 29.2409 50.148 29.2884 50.1809 29.3204C50.1962 29.3368 50.2174 29.3499 50.2415 29.3587L50.2608 29.4502C50.2844 29.5557 50.3085 29.6634 50.3308 29.7709L50.3402 29.747C50.4731 30.4656 50.5637 31.1935 50.6513 31.8973L50.6583 31.9511C50.7152 32.4099 50.78 32.9298 50.8625 33.4373C50.9788 34.1443 51.1129 34.7213 51.285 35.253C51.4807 35.857 51.7175 36.3651 52.0087 36.8064C52.5273 37.594 53.2934 38.243 54.2244 38.6832C55.016 39.0598 55.9056 39.259 56.7965 39.259C56.8983 39.259 57.0001 39.2563 57.1028 39.2511C58.0567 39.2016 58.9862 38.8993 59.7905 38.377C60.1273 38.1585 60.4375 37.8926 60.7118 37.5865C60.962 37.3044 61.177 36.9846 61.351 36.6361C61.6688 36.0043 61.8497 35.2495 61.8882 34.3923C61.9215 33.6432 61.8348 32.8407 61.6231 31.9393C61.4408 31.1569 61.1627 30.3499 60.797 29.5404C60.457 28.7871 60.0612 28.0768 59.6201 27.4288C59.3732 27.0661 59.1552 26.7796 58.9341 26.5274C58.9043 26.4924 58.8748 26.467 58.8277 26.4565L58.794 26.4538C58.7592 26.4538 58.7259 26.4641 58.6979 26.4834C58.6719 26.5 58.6497 26.5267 58.6373 26.5561C58.1522 26.4652 57.6465 26.4114 57.136 26.3949C57.0504 26.3923 56.9651 26.3906 56.8804 26.3906Z" fill="#F1457E"/>
<path d="M55.3811 26.5048C54.2548 26.681 53.1553 27.07 52.1129 27.66C51.4982 28.0071 50.8995 28.4364 50.3328 28.9342H50.3284L50.2907 28.9418C50.2481 28.9554 50.2122 28.9872 50.1933 29.0281C50.1822 29.0504 50.1771 29.0649 50.1763 29.0787C50.1436 29.1043 50.1248 29.147 50.1248 29.1931C50.1239 29.2411 50.1436 29.2899 50.1771 29.3241C50.1933 29.3403 50.2154 29.354 50.2395 29.3617L50.2566 29.4506L50.2719 29.5215C50.2907 29.6045 50.3087 29.6883 50.3258 29.773L50.3428 29.7489C50.4729 30.4895 50.5687 31.2703 50.6465 31.897L50.6532 31.9509C50.7106 32.4093 50.7756 32.9283 50.8577 33.437C50.9748 34.1502 51.1099 34.7274 51.2817 35.255C51.4759 35.857 51.7119 36.3648 52.0052 36.8077C52.5233 37.597 53.2904 38.2469 54.2224 38.6863C55.016 39.0643 55.906 39.2644 56.7963 39.2644C56.8981 39.2644 56.9999 39.2618 57.1023 39.2567C57.8319 39.2182 58.546 39.0328 59.2009 38.7145C59.0891 38.7493 58.9761 38.7804 58.8621 38.8078C58.3645 38.9266 57.8497 38.9814 57.3383 38.9505C56.8449 38.9199 56.3559 38.8207 55.8925 38.6471C55.6615 38.5606 55.4367 38.4606 55.2195 38.3435C54.9989 38.2229 54.7859 38.0896 54.5825 37.9407C54.1463 37.6235 53.7531 37.249 53.4101 36.8335C53.0612 36.4101 52.7543 35.9518 52.5045 35.4627C52.2479 34.9582 52.0378 34.4264 51.8949 33.8774C51.8231 33.6012 51.7648 33.3216 51.7289 33.0377C51.6922 32.7538 51.6735 32.4664 51.6845 32.1792C51.6948 31.9082 51.7248 31.6361 51.7889 31.3719C51.8222 31.2342 51.8616 31.0974 51.9128 30.9649C51.9496 30.8691 51.9925 30.776 52.0455 30.6878C52.1652 30.486 52.3156 30.3032 52.4833 30.1397C52.6645 29.9628 52.8628 29.8021 53.0706 29.6559C53.4887 29.3626 53.9412 29.1172 54.4081 28.9092C54.5114 28.863 54.6149 28.8177 54.7209 28.7768C54.8483 28.7271 54.9783 28.6835 55.1101 28.6503C55.3776 28.5826 55.6521 28.5426 55.9275 28.5253C56.503 28.4894 57.0785 28.5391 57.6531 28.5776C58.2209 28.6161 58.7938 28.6441 59.3599 28.5647L59.3461 28.5673C59.5008 28.5441 59.6547 28.5143 59.8053 28.4723C59.9367 28.4355 60.0654 28.3915 60.1921 28.3396C60.0124 28.0235 59.8224 27.7188 59.6232 27.4275C59.3787 27.0674 59.1615 26.7802 58.9374 26.5236C58.9118 26.4936 58.8809 26.4645 58.8297 26.4527L58.7938 26.4483C58.7579 26.4483 58.7244 26.4595 58.6964 26.4801C58.669 26.4971 58.6458 26.5236 58.6338 26.5545C58.1627 26.463 57.6581 26.4083 57.1358 26.3894C57.0502 26.3868 56.9646 26.3851 56.8801 26.3851C56.4123 26.3851 55.9078 26.4262 55.3811 26.5048Z" fill="#F14276"/>
<path d="M54.9507 27.4432C54.8336 27.4997 54.7874 27.6416 54.8413 27.7578C54.9242 27.9375 55.0293 28.1067 55.1311 28.2762C55.2329 28.4471 55.3373 28.6155 55.4389 28.7867C55.6425 29.126 55.8366 29.4716 56.0223 29.8212C56.2068 30.1692 56.3718 30.5267 56.5275 30.8892C56.6825 31.2522 56.8234 31.6217 56.9467 31.9969L56.9447 31.9914C57.0715 32.3815 57.1859 32.7746 57.2886 33.1724C57.3911 33.569 57.4775 33.97 57.5552 34.3719C57.7135 35.186 57.8376 36.0069 57.9324 36.8304C57.9359 36.862 57.9709 36.8834 58.0009 36.8775C58.0342 36.8714 58.0521 36.8407 58.0486 36.809C57.9795 36.1943 57.9077 35.5803 57.8188 34.968C57.7297 34.3531 57.6203 33.7426 57.4981 33.1338C57.3757 32.5277 57.2262 31.929 57.0603 31.3338C56.8935 30.7344 56.6917 30.1454 56.4592 29.5681C56.3112 29.2021 56.1394 28.8447 55.9452 28.5001C55.8417 28.3162 55.7289 28.1367 55.6092 27.9631C55.4971 27.7998 55.3747 27.6383 55.2311 27.5023C55.2047 27.4715 55.1714 27.4483 55.1329 27.4347C55.1068 27.4249 55.0794 27.42 55.0521 27.42C55.0173 27.42 54.9825 27.4279 54.9507 27.4432Z" fill="#E93866"/>
<path d="M51.1156 10.2175L51.122 10.217L51.1224 10.2168L51.1156 10.2175Z" fill="white"/>
<path d="M61.8425 23.4801L61.8438 23.4812L61.8414 23.4776L61.8425 23.4801Z" fill="white"/>
<path d="M61.8444 23.4818L61.845 23.4823L61.8444 23.4818Z" fill="white"/>
<path d="M49.6967 11.5134L49.6983 11.5101L49.7016 11.5013L49.6967 11.5134Z" fill="white"/>
<path d="M50.8271 10.3009L50.8349 10.2983L50.8392 10.296L50.8271 10.3009Z" fill="white"/>
<path d="M61.6851 26.9652L61.6827 26.9662L61.673 26.9716L61.6851 26.9652Z" fill="white"/>
<path d="M51.3829 10.2129L51.3942 10.2151L51.3966 10.2153L51.3829 10.2129Z" fill="white"/>
<path d="M47.6865 23.7034L47.6872 23.7026L47.6886 23.7005L47.6865 23.7034Z" fill="white"/>
<path d="M51.6549 10.2874L51.6595 10.2899L51.6671 10.2924L51.6549 10.2874Z" fill="white"/>
<path d="M62.8426 26.0876C62.7997 25.7978 62.7518 25.5095 62.6778 25.2262C62.6125 24.9756 62.5311 24.73 62.4315 24.4909C62.3527 24.3068 62.2636 24.1267 62.1623 23.9531C62.0673 23.7907 61.9613 23.635 61.8475 23.4853L61.8457 23.4835L61.8466 23.4842L61.8448 23.482V23.4827L61.844 23.4811L61.8424 23.4794L61.8389 23.475L61.8407 23.4759C61.7021 23.2999 61.5517 23.1322 61.39 22.9766C61.2302 22.8209 61.0592 22.6756 60.8812 22.5379C60.334 22.118 59.7311 21.7803 59.1283 21.4477C58.7307 21.2271 58.3323 21.0091 57.9431 20.7731C57.5421 20.5292 57.1514 20.2685 56.7836 19.9769C56.6836 19.8975 56.5853 19.8169 56.4912 19.7315C56.404 19.6519 56.3193 19.5707 56.2372 19.4853C56.0698 19.3117 55.9124 19.1269 55.7661 18.9345C55.4599 18.5293 55.1983 18.0922 54.9709 17.6382C54.4998 16.6976 54.1594 15.6972 53.8422 14.6959C53.6866 14.2034 53.5368 13.7091 53.3779 13.2166C53.3026 12.9832 53.2256 12.7497 53.1444 12.5181C53.0715 12.3125 52.9975 12.1078 52.9138 11.9073C52.7578 11.5347 52.5713 11.1718 52.3252 10.8505C52.2131 10.7069 52.0892 10.5735 51.9456 10.4606C51.8566 10.3925 51.7622 10.3354 51.6598 10.2896C51.6136 10.2704 51.5658 10.2522 51.5173 10.2399C51.4768 10.2292 51.436 10.2215 51.3947 10.215C51.3553 10.2102 51.3137 10.2067 51.2734 10.2067H51.2589C51.2154 10.2075 51.1725 10.2102 51.1298 10.2152L51.1248 10.2161H51.123C51.0759 10.2237 51.0271 10.2323 50.9803 10.2469C50.9308 10.2614 50.8831 10.2787 50.8354 10.2979C50.7636 10.3284 50.694 10.3632 50.627 10.4032C50.5561 10.447 50.4884 10.4939 50.4227 10.5444C50.3439 10.6051 50.2695 10.6701 50.2003 10.741C50.1388 10.8049 50.0797 10.8726 50.025 10.9428C49.8917 11.118 49.7846 11.3084 49.6984 11.5096C49.5662 11.8276 49.4867 12.163 49.4392 12.5034V12.5008C49.3854 12.9162 49.3759 13.3372 49.3932 13.7553C49.4118 14.1948 49.4574 14.6327 49.5154 15.0687L49.5136 15.0584C49.5942 15.6536 49.6993 16.2444 49.8011 16.8361C49.8464 17.0977 49.8908 17.3604 49.9285 17.6237C49.9626 17.8588 49.9917 18.0948 50.0079 18.3317C50.0429 18.8636 50.0388 19.4014 49.949 19.9281C49.9096 20.1591 49.8567 20.3883 49.784 20.6104C49.7155 20.8217 49.6325 21.0288 49.5351 21.2288C49.3291 21.6511 49.0655 22.0418 48.7766 22.4122C48.6124 22.6208 48.4415 22.8244 48.2652 23.0236C48.1643 23.1381 48.061 23.2502 47.9616 23.3655C47.871 23.4732 47.7821 23.582 47.6941 23.693H47.695L47.6932 23.6948L47.6873 23.7024C47.4794 23.9745 47.2846 24.2567 47.1101 24.5524C46.94 24.8431 46.7868 25.1433 46.6552 25.4537V25.4528C46.5381 25.7317 46.4363 26.0173 46.3566 26.3089C46.2772 26.5979 46.2174 26.8921 46.1771 27.1904L46.1789 27.1819C46.1447 27.4435 46.125 27.7068 46.1259 27.971C46.1259 28.2387 46.143 28.5047 46.1771 28.7707L46.1754 28.7604C46.2071 28.9972 46.2516 29.2323 46.3107 29.4633C46.366 29.6796 46.4328 29.8934 46.5107 30.1029L46.5201 30.1062C46.5637 30.1224 46.6064 30.1379 46.6491 30.1533L46.6423 30.1515C46.8253 30.2132 47.0118 30.2645 47.2016 30.3004C47.3931 30.3363 47.5855 30.361 47.7795 30.3748L47.765 30.373C48.036 30.3901 48.3073 30.3884 48.5774 30.3663C48.8381 30.3448 49.0964 30.3072 49.353 30.2568L49.3392 30.2601C49.6778 30.1918 50.0123 30.102 50.3398 29.9891C50.6467 29.884 50.9503 29.7634 51.2419 29.6189L51.229 29.6257C51.2624 29.6086 51.2957 29.5916 51.3281 29.5745C51.595 29.4307 51.8489 29.265 52.091 29.0826C52.3305 28.904 52.5603 28.7133 52.7895 28.5209C52.8508 28.4697 52.9125 28.4189 52.9738 28.3677C53.1262 28.2939 53.2781 28.219 53.4316 28.1479C53.907 27.9264 54.3956 27.732 54.9074 27.6155L54.9006 27.6168L54.9111 27.6147L54.9433 27.6074L54.9207 27.6127C55.315 27.5313 55.7149 27.4991 56.1179 27.517L56.1661 27.5201C56.1983 27.5221 56.2272 27.5216 56.255 27.512C56.3511 27.5162 56.4469 27.521 56.543 27.5256C56.6275 27.5376 56.7118 27.5503 56.7965 27.5615C57.1343 27.605 57.4738 27.6418 57.814 27.665H57.8116C58.1885 27.6897 58.5674 27.7 58.9444 27.6812C59.1335 27.6718 59.3233 27.6582 59.5113 27.6341C59.6867 27.6129 59.8603 27.5847 60.033 27.5496L60.0295 27.5512C60.316 27.4905 60.5982 27.4111 60.8727 27.311C61.1498 27.2121 61.42 27.097 61.6833 26.9658C61.9247 26.8446 62.1601 26.7099 62.3803 26.5547C62.5304 26.3956 62.6865 26.2415 62.8426 26.0876Z" fill="white"/>
<path d="M62.4289 24.4848L62.4314 24.4913L62.4339 24.4969L62.4289 24.4848Z" fill="white"/>
<path d="M52.9093 11.8962L52.9136 11.9075L52.9141 11.9083L52.9093 11.8962Z" fill="white"/>
<path d="M54.9074 27.6156L54.9199 27.6129L54.9109 27.6148L54.9074 27.6156Z" fill="white"/>
<path d="M55.3086 23.2235H55.2747C55.0689 23.2252 54.8651 23.2395 54.669 23.2662C54.4435 23.2975 54.2168 23.3454 54.0125 23.4047C53.8065 23.4623 53.597 23.5361 53.39 23.6239C53.1724 23.7162 52.9465 23.8312 52.7372 23.9557C52.5284 24.079 52.3213 24.2193 52.1223 24.3723C51.8964 24.5492 51.683 24.7381 51.4886 24.9336C51.2984 25.1253 51.1154 25.3333 50.9444 25.552C50.7518 25.8039 50.5898 26.0438 50.4492 26.2855C50.2967 26.5464 50.1612 26.8163 50.046 27.0878C49.9337 27.3564 49.8389 27.6293 49.7649 27.8997C49.6896 28.1751 49.6325 28.4515 49.5944 28.7219C49.5583 29.0104 49.5408 29.2687 49.5408 29.5123C49.5408 29.7424 49.5539 29.9777 49.58 30.2111C49.8394 30.1557 50.0948 30.0828 50.3422 29.9966C50.6815 29.8808 50.9766 29.7593 51.2454 29.6253L51.3318 29.5809C51.5831 29.4465 51.8406 29.281 52.0967 29.089C52.339 28.9075 52.5748 28.712 52.7952 28.5273L52.8672 28.4664L52.9811 28.3716L53.0712 28.3283C53.1916 28.2701 53.3131 28.2121 53.4355 28.1547C53.9968 27.894 54.465 27.7252 54.91 27.623C55.2471 27.5545 55.572 27.5212 55.9032 27.5212C55.9739 27.5212 56.0459 27.523 56.1177 27.5265L56.1654 27.5297L56.1928 27.5304C56.2186 27.5304 56.239 27.5271 56.2578 27.5195L56.5246 27.5332C56.6142 27.5459 56.7046 27.5589 56.7954 27.5707C57.1638 27.6175 57.4968 27.6515 57.8133 27.6744C58.0835 27.6915 58.3221 27.7 58.5425 27.7C58.6771 27.7 58.8104 27.6965 58.9448 27.6906C59.1727 27.6782 59.3529 27.6633 59.512 27.6434C59.6845 27.6217 59.8601 27.5932 60.0345 27.5589C60.2659 27.5096 60.496 27.4474 60.7177 27.3741C60.6067 27.1044 60.4697 26.8349 60.3119 26.5705C60.1505 26.3024 59.9737 26.0434 59.7867 25.8006C59.3441 25.2339 58.8404 24.73 58.2894 24.3031C58.081 24.1444 57.8845 24.0115 57.6881 23.8966C57.4891 23.7806 57.2869 23.6784 57.0857 23.5921C56.871 23.5026 56.6628 23.4312 56.4671 23.38C56.2782 23.329 56.0787 23.2889 55.8752 23.2611C55.6786 23.2362 55.4884 23.2235 55.3086 23.2235Z" fill="#FBC8C8"/>
<path d="M54.7765 26.0841C54.738 26.0953 54.7237 26.1312 54.7294 26.168C54.7373 26.2192 54.745 26.2706 54.7522 26.3219C54.7758 26.5165 54.798 26.7113 54.8201 26.9059C54.8312 27.0033 54.8417 27.1016 54.8518 27.1992C54.8636 27.3111 54.8741 27.424 54.8936 27.5352C54.9004 27.5738 54.9339 27.6105 54.9663 27.6294C55.0022 27.6506 55.0466 27.6559 55.0869 27.6447C55.1263 27.6344 55.1605 27.6079 55.181 27.5729L55.1964 27.5352C55.204 27.507 55.204 27.4796 55.1964 27.4514C55.1795 27.3393 55.1478 27.2299 55.1169 27.1204C55.0869 27.011 55.0545 26.9024 55.0228 26.7929C54.9595 26.5749 54.8973 26.356 54.8606 26.1321C54.8551 26.101 54.822 26.0822 54.7925 26.0822L54.7765 26.0841Z" fill="#2F253E"/>
<path d="M54.849 20.9634C54.7581 20.9634 54.6684 20.9651 54.5786 20.9693C54.0979 20.9945 53.6253 21.086 53.1739 21.2414C52.1768 21.584 51.4325 22.2048 51.0777 22.9895C50.9113 23.3571 50.8393 23.7259 50.8636 24.086C50.8875 24.4371 51.0046 24.7694 51.2027 25.0472C51.3023 25.1867 51.4183 25.3092 51.5477 25.411C51.6153 25.4644 51.6821 25.5106 51.7524 25.5524C51.8349 25.6015 51.9224 25.6398 52.0043 25.6739C52.1519 25.7359 52.3189 25.7757 52.529 25.7998C52.5943 25.807 52.6597 25.8105 52.7252 25.8105C52.8294 25.8105 52.9379 25.8022 53.057 25.7851C53.2219 26.0787 53.4598 26.309 53.7435 26.4504C53.9035 26.5301 54.0782 26.5822 54.2774 26.6095C54.3516 26.6194 54.4249 26.6237 54.4981 26.6237C54.5977 26.6237 54.7021 26.6156 54.8176 26.5992C55.1633 26.5491 55.5054 26.3928 55.8071 26.1474C56.0954 25.9117 56.3077 25.5805 56.4058 25.214C56.4426 25.0774 56.462 24.9294 56.4638 24.774C56.7545 24.6324 57.1485 24.3671 57.3666 23.9199C57.4491 23.7515 57.5005 23.5679 57.5233 23.3582C57.5428 23.1879 57.5309 23.0042 57.4876 22.7967C57.4121 22.4364 57.2234 22.0804 56.9412 21.767C56.6689 21.4636 56.3117 21.2326 55.9084 21.0995C55.6941 21.0282 55.4704 21.0001 55.2607 20.9804C55.1307 20.9691 54.9923 20.9634 54.849 20.9634Z" fill="#2F253E"/>
<path d="M55.5488 22.4397C55.4947 22.4397 55.4409 22.4373 55.3875 22.4327C55.343 22.429 55.2982 22.4237 55.2535 22.4169C55.1145 22.3959 54.9737 22.3611 54.8352 22.3134C54.7266 22.2757 54.6399 22.2396 54.5622 22.1995C54.4952 22.1643 54.4252 22.1238 54.3683 22.0673C54.3418 22.0408 54.3148 22.0115 54.2971 21.9782C54.2835 21.9513 54.2702 21.9229 54.2678 21.8944C54.2649 21.8679 54.2625 21.8368 54.2697 21.8049C54.2796 21.7681 54.2923 21.7398 54.3085 21.7182C54.3468 21.6645 54.3991 21.6155 54.4626 21.5726C54.4724 21.561 54.4834 21.5512 54.5125 21.5369L54.5344 21.5286C54.6255 21.478 54.7205 21.4428 54.8166 21.4224C54.907 21.4047 54.9961 21.3942 55.0808 21.3914C55.1521 21.3833 55.2176 21.3793 55.2795 21.3793C55.2957 21.3793 55.3117 21.3795 55.3275 21.38C55.4111 21.383 55.4956 21.3905 55.5786 21.403C55.6293 21.4106 55.679 21.42 55.7283 21.4314C55.8528 21.4618 55.9754 21.5061 56.1035 21.5667C56.1803 21.6033 56.2795 21.6543 56.3655 21.7256C56.3984 21.7523 56.4257 21.779 56.4489 21.8075C56.4649 21.8281 56.4844 21.8535 56.4993 21.8911L56.5124 21.9285L56.5201 21.9776C56.5214 22.0023 56.5196 22.0264 56.5146 22.0494C56.501 22.0997 56.4719 22.1485 56.4329 22.1868C56.3804 22.2363 56.3169 22.2773 56.2442 22.3088C56.1652 22.3425 56.0827 22.3694 55.9984 22.3887C55.8472 22.4226 55.6966 22.4397 55.5488 22.4397Z" fill="#706081"/>
<path d="M44.4329 17.6617C44.2642 17.6617 44.0965 17.6809 43.9341 17.7192C43.577 17.8057 43.2274 18.0091 42.9232 18.3081C42.7859 18.4425 42.6561 18.6019 42.5372 18.7814C42.3558 19.027 42.2023 19.3074 42.0686 19.6373C41.9383 19.958 41.8385 20.3156 41.7724 20.7007C41.7061 21.0818 41.6759 21.4739 41.6818 21.8659C41.6877 22.2505 41.7319 22.6373 41.8133 23.0154C41.8932 23.3829 42.0143 23.7314 42.1736 24.0514C42.3306 24.3693 42.53 24.6477 42.7667 24.8791C43.0083 25.1157 43.2955 25.295 43.6199 25.4113C43.7651 25.4645 43.9222 25.5017 44.1011 25.5262C44.2204 25.5419 44.3307 25.5498 44.4382 25.5498C44.4861 25.5498 44.5338 25.5481 44.582 25.545C44.8791 25.5244 45.1687 25.4417 45.4423 25.2985C45.6855 25.1716 45.9167 24.9883 46.1286 24.7539C46.3262 24.5372 46.5053 24.2756 46.66 23.9772C46.9532 23.4094 47.1436 22.7444 47.2255 21.9992C47.3019 21.2963 47.2559 20.5882 47.0917 19.951C46.9201 19.2811 46.6132 18.7282 46.2054 18.3506C45.9572 18.1207 45.6386 17.9403 45.2315 17.7994C44.9679 17.7079 44.6993 17.6617 44.4329 17.6617Z" fill="white"/>
<path d="M44.8079 18.5277C44.6801 18.5366 44.5544 18.5598 44.4356 18.5973C44.1711 18.6811 43.9185 18.8521 43.7051 19.0929C43.6059 19.2049 43.5166 19.3317 43.4389 19.47C43.3165 19.6616 43.2158 19.8803 43.1313 20.1379C43.0497 20.3857 42.9932 20.6604 42.9634 20.954C42.9335 21.2418 42.931 21.538 42.956 21.8342C42.9807 22.122 43.0339 22.411 43.1151 22.6927C43.1939 22.9646 43.3034 23.2203 43.4402 23.453C43.5757 23.6843 43.7403 23.8838 43.9299 24.0451C44.1234 24.2104 44.3489 24.3303 44.5997 24.4015C44.7123 24.4334 44.8329 24.4538 44.9688 24.463C45.061 24.4685 45.1441 24.4685 45.2232 24.463C45.2593 24.4604 45.2952 24.4571 45.3317 24.452C45.5552 24.4203 45.7689 24.3426 45.9666 24.2204C46.1432 24.113 46.3074 23.9632 46.4547 23.7758C46.5937 23.5998 46.7146 23.3936 46.8144 23.1625C47.0048 22.7229 47.1134 22.2124 47.1368 21.6455C47.1583 21.1129 47.0862 20.5825 46.9291 20.1121C46.7658 19.618 46.5062 19.2172 46.1787 18.9536C45.979 18.793 45.7299 18.6741 45.4167 18.5903C45.2129 18.5349 45.008 18.5139 44.8079 18.5277Z" fill="#2F253E"/>
<path d="M42.5442 21.1641C42.3956 21.1965 42.2159 21.2685 42.1706 21.4299C42.1509 21.5012 42.1647 21.5719 42.1964 21.6372C42.2235 21.691 42.2671 21.7341 42.3137 21.7722C42.3253 21.8057 42.3474 21.8351 42.3792 21.8541C42.5368 21.9482 42.7163 22.0124 42.8934 22.0614C42.9985 22.0901 43.1079 22.1098 43.2165 22.1212C43.3218 22.1332 43.4312 22.1277 43.5337 22.1032C43.6228 22.0807 43.7099 22.0349 43.7705 21.9664C43.804 21.9296 43.8314 21.89 43.8526 21.8447C43.8793 21.7891 43.8935 21.7394 43.9014 21.6781C43.9058 21.6394 43.8986 21.5976 43.8885 21.5608C43.8756 21.5133 43.8526 21.4743 43.8246 21.4343C43.7766 21.3686 43.7057 21.3191 43.6337 21.2815C43.4636 21.1941 43.2736 21.1563 43.0849 21.1352C43.0247 21.1278 42.9645 21.1245 42.9043 21.1245C42.7837 21.1245 42.6631 21.1383 42.5442 21.1641Z" fill="white"/>
<path d="M59.3106 13.9458C59.4698 13.8898 59.6346 13.8521 59.8003 13.834C60.1657 13.7968 60.5632 13.8727 60.9496 14.0531C61.1238 14.1345 61.2991 14.2416 61.471 14.3709C61.7238 14.5428 61.9615 14.7558 62.1977 15.0226C62.4269 15.2818 62.6399 15.5859 62.8306 15.9271C63.0197 16.2644 63.1786 16.6239 63.3034 16.9958C63.4258 17.3607 63.5127 17.7401 63.5615 18.1236C63.6086 18.4968 63.6103 18.8659 63.5665 19.2205C63.5241 19.5723 63.4284 19.9013 63.2824 20.1981C63.1331 20.5017 62.9219 20.7662 62.6546 20.984C62.5355 21.0821 62.3998 21.1696 62.2391 21.2521C62.1321 21.3069 62.0305 21.3509 61.9289 21.3865C61.8838 21.4025 61.8381 21.417 61.7919 21.4297C61.5049 21.5096 61.2044 21.5277 60.8985 21.4835C60.6269 21.4445 60.3482 21.3487 60.0702 21.1983C59.8117 21.0597 59.5562 20.8726 59.3108 20.6425C58.8455 20.2047 58.4447 19.6404 58.1198 18.9653C57.8138 18.3278 57.6216 17.6444 57.5642 16.9888C57.5038 16.3003 57.6091 15.6765 57.8683 15.185C58.0259 14.8856 58.2665 14.6095 58.6034 14.3414C58.8218 14.1674 59.0598 14.0343 59.3106 13.9458Z" fill="white"/>
<path d="M59.2449 14.8871C59.3686 14.853 59.4947 14.8333 59.6195 14.8289C59.8966 14.8199 60.1919 14.8974 60.4734 15.0533C60.6037 15.1261 60.7304 15.2159 60.8495 15.3203C61.0286 15.4604 61.1962 15.6331 61.3617 15.8481C61.5211 16.0545 61.6656 16.2949 61.7914 16.5617C61.9155 16.8237 62.0162 17.1022 62.0911 17.3896C62.1638 17.6691 62.2093 17.9594 62.2268 18.2523C62.2426 18.5347 62.2244 18.8122 62.1725 19.0771C62.1222 19.3405 62.0333 19.5832 61.9079 19.7984C61.7805 20.0186 61.6078 20.2067 61.395 20.357C61.2996 20.4249 61.1923 20.484 61.0675 20.5381C60.9821 20.5738 60.9036 20.6013 60.8272 20.6226C60.7926 20.6322 60.7576 20.6412 60.7212 20.6484C60.4997 20.6928 60.2727 20.6906 60.0457 20.6414C59.8432 20.5983 59.6387 20.5118 59.4371 20.384C59.2478 20.2644 59.0652 20.1103 58.8943 19.9256C58.5685 19.5742 58.2962 19.1288 58.0856 18.6019C57.8886 18.1065 57.7796 17.5825 57.7715 17.0866C57.7612 16.5663 57.8729 16.1025 58.0942 15.7445C58.2288 15.527 58.4243 15.3321 58.6918 15.1485C58.8656 15.0285 59.0519 14.9405 59.2449 14.8871Z" fill="#2F253E"/>
<path d="M62.2566 16.6208C62.4076 16.602 62.6009 16.6099 62.6975 16.7474C62.7395 16.8078 62.7502 16.8791 62.7421 16.9509C62.7347 17.0109 62.7077 17.0663 62.6764 17.1177C62.6764 17.153 62.6653 17.188 62.6416 17.2167C62.5245 17.3577 62.3766 17.4781 62.2257 17.5827C62.1364 17.6451 62.0397 17.7 61.9409 17.7467C61.8457 17.7928 61.7409 17.8246 61.6358 17.8353C61.5445 17.8438 61.4469 17.8294 61.367 17.785C61.3232 17.7613 61.2844 17.7335 61.249 17.6978C61.2056 17.6543 61.1754 17.6123 61.1476 17.5566C61.1308 17.5218 61.1233 17.48 61.1209 17.4419C61.117 17.3925 61.126 17.3487 61.1393 17.3014C61.1625 17.2233 61.2129 17.153 61.268 17.0937C61.3996 16.9547 61.5662 16.8562 61.7371 16.7732C61.7916 16.7465 61.8472 16.7231 61.9037 16.7031C62.0178 16.6631 62.136 16.6362 62.2566 16.6208Z" fill="white"/>
<path d="M45.0029 12.296C44.9896 12.2172 44.9535 12.153 44.9163 12.0959C44.879 12.0388 44.8243 11.993 44.7757 11.9558C44.7072 11.9028 44.6251 11.8641 44.5468 11.8297C44.4077 11.7686 44.2515 11.7323 44.0945 11.7244C44.0724 11.7229 44.0509 11.7229 44.0286 11.7229C43.8977 11.7229 43.7589 11.743 43.616 11.7835C43.315 11.8685 43.0155 12.0278 42.6729 12.285C42.5793 12.3549 42.4858 12.4326 42.3912 12.5149C42.2759 12.6003 42.1664 12.6942 42.0635 12.7949C41.7367 13.081 41.439 13.4218 41.1965 13.799C41.0522 14.0227 40.9274 14.2624 40.8261 14.5108C40.7676 14.654 40.7092 14.8236 40.7181 14.9975C40.7201 15.0355 40.7287 15.092 40.7578 15.143C40.7722 15.1667 40.7869 15.1912 40.8077 15.2111C40.844 15.2433 40.8666 15.2599 40.9128 15.2805C40.9557 15.3011 41.0049 15.3052 41.0388 15.3052C41.1174 15.3033 41.1759 15.2938 41.2383 15.2757C41.4121 15.2251 41.5701 15.1426 41.6885 15.076C41.8838 14.9679 42.0694 14.8462 42.2093 14.7521C42.3667 14.6476 42.5215 14.5393 42.6754 14.4298L42.7638 14.3672C42.8395 14.3129 42.9153 14.2591 42.9934 14.209C43.0908 14.1486 43.1889 14.0892 43.287 14.0301C43.4113 13.955 43.5356 13.88 43.6578 13.8022C43.9023 13.6473 44.2195 13.4373 44.5038 13.1865C44.638 13.0676 44.7455 12.9536 44.8324 12.838C44.8709 12.7881 44.9064 12.7294 44.9412 12.6587C44.969 12.6033 44.9883 12.5442 45.0038 12.4676C45.0139 12.4168 45.0137 12.3592 45.0029 12.296Z" fill="#4A3960"/>
<path d="M61.4467 10.4533C61.3834 10.2911 61.2602 10.1604 61.1483 10.054C60.9535 9.86947 60.7412 9.70244 60.5177 9.55797C60.1411 9.31389 59.7298 9.12607 59.3141 8.99977C59.1786 8.95029 59.0403 8.9098 58.8995 8.87937C58.7796 8.84325 58.6627 8.81108 58.5489 8.78612C58.1307 8.69243 57.7919 8.67054 57.483 8.71738C57.3359 8.73949 57.2009 8.77802 57.0818 8.83187C57.0614 8.84106 57.0419 8.84982 57.0224 8.86055C56.8826 8.93213 56.7552 9.02976 56.6534 9.14272C56.5962 9.20598 56.5376 9.27515 56.4971 9.35176C56.468 9.40583 56.4369 9.47019 56.4264 9.53718C56.4161 9.60482 56.4097 9.67815 56.4297 9.7552C56.4461 9.81715 56.4695 9.87013 56.4997 9.91216C56.5455 9.97564 56.5873 10.0216 56.6352 10.0606C56.6961 10.1105 56.7528 10.1492 56.8081 10.179C56.9351 10.2486 57.08 10.3081 57.251 10.3611C57.6137 10.4728 57.9891 10.5336 58.2757 10.5741C58.4193 10.5947 58.5633 10.612 58.7076 10.6291C58.8212 10.6426 58.935 10.6562 59.0488 10.6715C59.1405 10.6847 59.2316 10.7028 59.3231 10.7208L59.4295 10.7416C59.6147 10.7779 59.8003 10.8132 59.9868 10.8436C60.153 10.8716 60.3723 10.9062 60.5949 10.9246C60.7302 10.9362 60.908 10.9463 61.0875 10.9209C61.1516 10.9117 61.2089 10.8961 61.2814 10.8657C61.3121 10.8517 61.3552 10.8274 61.3863 10.7915C61.4193 10.7534 61.4331 10.7289 61.4532 10.6847C61.464 10.658 61.4673 10.6297 61.4708 10.6021C61.4762 10.5435 61.4605 10.4887 61.4467 10.4533Z" fill="#4A3960"/>
<path d="M38.2448 25.7543L38.2406 25.7648L38.2448 25.7543ZM38.9687 24.7493L38.9556 24.7594L38.9687 24.7493ZM39.9586 24.2986L39.9371 24.3021L39.9586 24.2986ZM39.5525 23.9735C39.3763 24.0438 39.213 24.1368 39.0624 24.2524C38.9111 24.3686 38.7811 24.5045 38.6613 24.6516C38.4221 24.9459 38.2415 25.2784 38.1117 25.6341C37.9858 25.9754 37.9217 26.3405 37.9243 26.7047C37.9243 26.7398 37.956 26.7689 37.9919 26.768C38.0278 26.7671 38.0552 26.7371 38.0552 26.7012C38.0552 26.6172 38.0589 26.534 38.067 26.4506V26.4517C38.0948 26.215 38.1542 25.9854 38.2406 25.7648L38.2365 25.7744L38.2448 25.7543L38.245 25.7538L38.2448 25.7543C38.3345 25.5393 38.4484 25.3375 38.5867 25.1503C38.7012 25.0017 38.8282 24.8655 38.972 24.7464C39.1289 24.6249 39.2966 24.5183 39.4772 24.4354C39.6217 24.3752 39.7712 24.3316 39.9253 24.304C40.0829 24.2832 40.2414 24.2806 40.3999 24.2959C40.4625 24.3043 40.5246 24.3154 40.5862 24.3275C40.6435 24.3386 40.6982 24.3336 40.7486 24.3027C40.7974 24.2736 40.8333 24.2259 40.8471 24.1712C40.8753 24.0547 40.8033 23.9411 40.6906 23.9102C40.5352 23.868 40.3747 23.847 40.2147 23.8467C39.9886 23.8467 39.7631 23.889 39.5525 23.9735Z" fill="#4A3960"/>
<path d="M67.4236 19.1713L67.4221 19.1693L67.4159 19.1612L67.4236 19.1713ZM65.1781 17.8576C65.0113 17.8797 64.8524 17.9336 64.7009 18.0052C64.5343 18.0842 64.3863 18.2044 64.2513 18.3285C64.1401 18.4294 64.1444 18.6144 64.2469 18.7186C64.2983 18.7704 64.3684 18.8007 64.441 18.8015C64.4899 18.8022 64.5352 18.7902 64.5779 18.7672C64.6223 18.7424 64.6573 18.7081 64.6829 18.6647L64.6983 18.6422C64.7668 18.5594 64.8429 18.485 64.9281 18.4176C65.0117 18.3587 65.0997 18.3092 65.1936 18.2694C65.2895 18.235 65.3869 18.2092 65.4874 18.1952C65.6139 18.184 65.74 18.1864 65.8657 18.2013C66.0307 18.2263 66.1907 18.2711 66.3455 18.3329C66.5644 18.4257 66.7669 18.5474 66.9545 18.6925C67.1276 18.8304 67.2824 18.985 67.4159 19.1612L67.4124 19.1564L67.4221 19.1693L67.4253 19.1732L67.4236 19.1713L67.4442 19.2006C67.4698 19.2365 67.5125 19.2553 67.5545 19.2323C67.5904 19.2126 67.6116 19.1579 67.586 19.122C67.2191 18.6056 66.7027 18.1936 66.1084 17.9693C65.8878 17.8867 65.6518 17.8419 65.416 17.8419C65.3364 17.8419 65.2571 17.8469 65.1781 17.8576Z" fill="#4A3960"/>
<path d="M67.0379 20.9198C66.9941 20.8377 66.9324 20.7608 66.8494 20.6849C66.7027 20.5524 66.5191 20.4452 66.2715 20.3467C66.0756 20.2679 65.8573 20.2105 65.5844 20.1661C65.4303 20.14 65.2794 20.1267 65.1361 20.1267C65.0754 20.1267 65.0137 20.1293 64.952 20.1343C64.9187 20.137 64.8861 20.1403 64.8528 20.1446L64.8189 20.1534C64.7681 20.1584 64.7258 20.184 64.7039 20.2237C64.5789 20.4447 64.4666 20.6825 64.3703 20.93C64.288 21.1437 64.2127 21.381 64.1335 21.6769C64.0312 22.0563 63.9511 22.4459 63.8734 22.8229C63.8445 22.9674 63.8145 23.1118 63.7837 23.2563C63.7195 23.5514 63.6392 23.8984 63.5291 24.2359C63.4341 24.5229 63.3174 24.8018 63.1828 25.0651L63.2027 25.0443C63.009 25.4 62.7829 25.729 62.5265 26.0197C62.2702 26.2991 61.9968 26.5342 61.6905 26.7386C61.3663 26.9488 61.0054 27.1237 60.6179 27.2583L60.5956 27.266C60.1002 27.4282 59.554 27.5284 58.9724 27.5634C58.8323 27.5702 58.6929 27.5737 58.5528 27.5737C58.421 27.5737 58.2903 27.5711 58.1585 27.565C57.8407 27.551 57.5193 27.5184 57.2087 27.4868L57.1805 27.4838L57.0669 27.4728C56.7672 27.4424 56.4483 27.4113 56.1354 27.3923C55.9629 27.3815 55.7874 27.3761 55.6138 27.3761C55.4356 27.3761 55.2598 27.3822 55.0913 27.394C54.7417 27.417 54.4009 27.4803 54.0782 27.5823C53.7833 27.6757 53.4865 27.8145 53.1704 28.0067C52.8083 28.2261 52.4658 28.4874 52.1343 28.7403C51.9527 28.8797 51.7714 29.0174 51.5869 29.15C51.5081 29.2065 51.4286 29.2613 51.3483 29.3142C51.1281 29.4583 50.9214 29.5758 50.7165 29.673C50.5399 29.7579 50.3485 29.8346 50.1312 29.9072L50.1104 29.9171L50.1097 29.9149C49.6159 30.0714 49.0966 30.1682 48.566 30.2021C48.4447 30.2082 48.3233 30.2115 48.202 30.2115C47.6928 30.2115 47.1648 30.1555 46.6325 30.0449L46.609 30.0405C45.8641 29.8748 45.129 29.6073 44.4242 29.2455C43.7086 28.8714 43.0462 28.4113 42.4556 27.8778L42.4659 27.8995C41.9423 27.4091 41.4896 26.8813 41.1236 26.328C41.0423 26.203 40.9583 26.0644 40.8808 25.9272C40.848 25.8683 40.7891 25.8317 40.7267 25.8317C40.702 25.8317 40.6787 25.8372 40.6555 25.8483L40.6133 25.8794L40.5761 25.8928C40.4342 25.9606 40.313 26.0753 40.2232 26.1677C40.1046 26.2899 39.9901 26.4352 39.8629 26.6255C39.751 26.792 39.6479 26.9768 39.5567 27.1747C39.459 27.3874 39.389 27.5823 39.3428 27.7703C39.2924 27.9741 39.276 28.154 39.2922 28.3209C39.301 28.4097 39.3176 28.4872 39.3428 28.5584C39.373 28.64 39.4159 28.7149 39.4783 28.7939C39.5297 28.8574 39.5982 28.9051 39.6584 28.9432C39.7208 28.9832 39.7946 29.0117 39.8662 29.0231C39.897 29.0283 39.927 29.0307 39.9572 29.0307C40.0658 29.0307 40.174 28.9968 40.2705 28.9322C40.4557 28.8088 40.577 28.6164 40.6619 28.4629C40.7917 28.2283 40.8823 27.982 40.9469 27.7937C41.0294 27.5545 41.1056 27.2857 41.1796 26.9718C41.6043 27.5396 42.1239 28.0676 42.7202 28.5422C43.5873 29.233 44.6067 29.7827 45.6684 30.132C46.5064 30.4068 47.3529 30.546 48.1847 30.546C48.4345 30.546 48.6814 30.5337 48.9187 30.5092C49.4467 30.4551 49.9738 30.3299 50.4858 30.1371C50.7631 30.0324 51.0414 29.8967 51.313 29.7334C51.6162 29.5491 51.9038 29.3377 52.1203 29.1741L52.3716 28.9832C52.6348 28.7836 52.8968 28.5844 53.1669 28.4053C53.515 28.1803 53.8348 28.0192 54.1447 27.913L54.1016 27.9174C54.4477 27.8134 54.8104 27.7475 55.2112 27.7208C55.3292 27.7149 55.4461 27.7123 55.5634 27.7123C56.0875 27.7123 56.6299 27.7672 57.1082 27.8156L57.2777 27.8329C57.583 27.8627 57.9086 27.8929 58.2345 27.9047C58.3277 27.908 58.421 27.9098 58.5143 27.9098C58.6835 27.9098 58.8641 27.9043 59.0659 27.8927C60.135 27.8285 61.1113 27.5227 61.8895 27.0083C62.5311 26.5841 63.0709 25.9843 63.4509 25.2742C63.6482 24.9044 63.811 24.4949 63.9352 24.0569C64.0059 23.8049 64.063 23.5472 64.1197 23.2837L64.1808 22.9936L64.2147 22.8314L64.2891 22.4748L64.2917 22.4481C64.3863 22.0261 64.505 21.5296 64.6866 21.0531C64.8874 21.2124 65.0572 21.3352 65.2341 21.4519C65.5036 21.6323 65.7343 21.7496 65.9607 21.8205C66.0782 21.8575 66.2034 21.8788 66.3227 21.8823C66.4608 21.8823 66.5795 21.8593 66.7222 21.8052C66.8347 21.7623 66.9374 21.6885 67.0112 21.5977C67.0863 21.5073 67.1281 21.3939 67.1324 21.2696C67.1383 21.1328 67.0843 21.0038 67.0379 20.9198Z" fill="#2F253E"/>
<path d="M35.9787 33.0699L35.9478 33.0982C35.9675 33.1435 35.9881 33.1888 36.0087 33.2341C36.0205 33.2606 36.0334 33.2871 36.0455 33.3136C36.0881 33.4009 36.1317 33.488 36.1761 33.5745C36.2232 33.6575 36.272 33.7395 36.3206 33.8208L36.313 33.8087C36.3412 33.8556 36.3699 33.9024 36.3985 33.9492C36.4334 34.0013 36.4688 34.053 36.5049 34.104C36.5822 34.2056 36.6614 34.3054 36.7422 34.4028C36.8782 34.5525 37.0202 34.6979 37.1647 34.8391C37.5975 35.2598 38.0797 35.6214 38.5911 35.9413C39.5812 36.5594 40.6722 36.999 41.7958 37.3111C42.6414 37.5463 43.507 37.7036 44.3764 37.8199C44.8048 37.8779 45.2341 37.9234 45.6642 37.9679C46.1003 38.0123 46.5364 38.0456 46.9735 38.0817C47.0033 38.0841 47.0306 38.067 47.0359 38.0362C47.04 38.0081 47.0203 37.9755 46.9906 37.9729C46.5895 37.9396 46.1885 37.8943 45.789 37.844C45.5933 37.8188 45.3974 37.7934 45.2017 37.7634C44.994 37.731 44.7869 37.6942 44.5791 37.659C44.1746 37.5898 43.7736 37.5027 43.3734 37.4112C42.9742 37.3206 42.5782 37.2146 42.1857 37.0966C41.0699 36.758 39.984 36.3099 38.9912 35.6959L38.9851 35.6924L38.9836 35.6917H38.9842H38.9836L38.9536 35.672L38.9792 35.6889L38.9433 35.6659L38.9536 35.672C38.7158 35.5214 38.484 35.3616 38.2575 35.1931C37.9617 34.9956 37.6811 34.7732 37.4186 34.5337C37.3477 34.4799 37.2777 34.4243 37.2091 34.3671C37.0108 34.2003 36.8202 34.0232 36.6422 33.8335C36.413 33.5898 36.2011 33.3291 36.019 33.0485L35.9787 33.0699Z" fill="#4A3960"/>
<path d="M42.184 37.0969L42.1835 37.0967L42.184 37.0969Z" fill="#4A3960"/>
<path d="M42.1831 37.0964L42.182 37.096L42.1831 37.0964Z" fill="#4A3960"/>
<path d="M30.1787 1.32923C30.1265 1.32923 30.0742 1.33097 30.022 1.33535C29.9038 1.34433 29.7696 1.37081 29.6119 1.41569C29.4925 1.44896 29.3688 1.498 29.2338 1.56476C29.0884 1.63634 28.9662 1.70617 28.8607 1.77775C28.7237 1.86991 28.602 1.97586 28.4986 2.0678C28.2428 2.29524 28.0218 2.58725 27.8235 2.96026C27.6414 3.30044 27.5053 3.69665 27.419 4.13839C27.3475 4.50046 27.3112 4.89558 27.3043 5.38198L27.3035 5.41153V5.44284C27.212 5.30493 27.1048 5.16899 26.9703 5.01379C26.5762 4.55803 26.1665 4.17211 25.7523 3.86674C25.5274 3.70103 25.2878 3.55568 25.0397 3.43485C24.8104 3.32211 24.5586 3.23695 24.2918 3.18201C24.1552 3.15421 24.0083 3.13998 23.8545 3.13998C23.7518 3.13998 23.6489 3.14677 23.5489 3.15924C23.4303 3.17369 23.3137 3.205 23.2149 3.23368C23.1329 3.25644 23.0478 3.2908 22.9615 3.33568C22.8638 3.38668 22.7811 3.43922 22.7082 3.4957C22.6395 3.54889 22.5697 3.61719 22.4889 3.71066C22.3832 3.83653 22.2948 3.9937 22.2338 4.16619C22.1222 4.48119 22.0857 4.84348 22.1225 5.27363C22.138 5.44744 22.1682 5.62606 22.2148 5.81869C22.2662 6.03475 22.3221 6.22235 22.386 6.39243C22.5115 6.72976 22.6697 7.04783 22.8565 7.33678C23.1088 7.72752 23.444 8.10863 23.8811 8.50221C24.0584 8.66114 24.2655 8.82334 24.533 9.01291C24.7405 9.1598 24.973 9.30558 25.2437 9.45728C25.5234 9.61445 25.7534 9.73442 25.9896 9.84737C26.2111 9.95332 26.4644 10.0604 26.7633 10.1751C27.2564 10.3627 27.7814 10.5231 28.3236 10.6512C28.3723 10.6634 28.4201 10.6746 28.4689 10.6858L28.5348 10.6965L28.6006 10.7079C28.6412 10.702 28.6685 10.6904 28.6897 10.6698C29.0724 10.3228 29.4277 9.92683 29.7759 9.45947C29.9324 9.24933 30.0842 9.02627 30.2532 8.75746C30.4241 8.48667 30.5661 8.24194 30.6877 8.00903C30.809 7.77415 30.9265 7.52547 31.0572 7.22558C31.1792 6.94582 31.2826 6.68598 31.3734 6.43118C31.5711 5.86992 31.7184 5.3509 31.8235 4.84545C31.9356 4.2982 31.9877 3.82121 31.9824 3.38712C31.98 3.14327 31.9417 2.89065 31.8688 2.63651C31.7983 2.39221 31.683 2.16478 31.5348 1.97915C31.355 1.75302 31.1242 1.57549 30.8671 1.46626C30.6509 1.37541 30.4193 1.32923 30.1787 1.32923Z" fill="#F1457E"/>
<path d="M71.3349 7.46439L71.2946 7.46527C71.1926 7.46877 71.09 7.49505 71.0223 7.51234C70.942 7.5327 70.8592 7.56553 70.7618 7.61609C70.5642 7.7192 70.3849 7.85251 70.2295 8.01231C69.9895 8.25989 69.8177 8.61254 69.733 9.03196C69.6608 9.3984 69.6564 9.81147 69.7201 10.2948C69.7757 10.7068 69.8847 11.1512 70.0528 11.6538C70.2233 12.1662 70.4383 12.6795 70.6918 13.1795C70.8533 13.5002 71.0751 13.9154 71.3579 14.283L71.3927 14.3152L71.4361 14.3112L71.4763 14.306C71.6987 14.2607 71.9185 14.2129 72.1374 14.1615C72.258 14.1291 72.3778 14.0949 72.4969 14.0597C72.6733 14.0072 72.8495 13.9533 73.0255 13.8992L73.1851 13.8502C73.6091 13.6952 73.9685 13.5459 74.2842 13.3934C74.7901 13.1504 75.2196 12.8958 75.5972 12.6152C75.7959 12.4672 75.9894 12.3008 76.172 12.1207C76.3263 11.9672 76.4669 11.7851 76.628 11.5303C76.763 11.3166 76.8675 11.0745 76.9388 10.8105C76.9664 10.7125 76.9848 10.6002 76.9935 10.4767C76.9986 10.3826 77.0021 10.3114 76.9986 10.2396C76.9944 10.1554 76.9754 10.0704 76.9568 9.98812C76.9005 9.74185 76.758 9.50894 76.5439 9.3104C76.5111 9.27975 76.4717 9.25042 76.4196 9.2178C76.3469 9.16986 76.2804 9.12717 76.2031 9.09018C76.1517 9.06522 76.0967 9.04662 76.042 9.02845C75.9246 8.9919 75.8408 8.96629 75.7484 8.94899C75.6302 8.92842 75.5063 8.91812 75.3802 8.91812C75.3461 8.91812 75.3117 8.91901 75.2776 8.91966C75.1053 8.92645 74.9359 8.96519 74.7787 9.00612C74.4512 9.08953 74.1522 9.25546 73.928 9.3903C73.6995 9.52887 73.4657 9.7042 73.2138 9.92683C73.1428 9.99009 73.0719 10.0569 73.0034 10.1234C73.0139 10.0816 73.0115 10.0365 73.008 9.99075C72.9813 9.60745 72.9042 9.22284 72.7786 8.84764C72.7234 8.67515 72.6446 8.49674 72.5382 8.30279C72.4531 8.14672 72.348 8.00224 72.2173 7.86104C72.1028 7.73824 71.9689 7.63974 71.8189 7.56816C71.6771 7.49942 71.5142 7.46439 71.3349 7.46439Z" fill="#F1457E"/>
</svg>
