<svg width="93" height="19" viewBox="0 0 93 19" fill="none" xmlns="http://www.w3.org/2000/svg">
<path d="M21.4426 10.3491C21.4426 9.6475 21.5732 9.03156 21.8342 8.50129C22.1034 7.97101 22.4665 7.5631 22.9233 7.27757C23.3802 6.99203 23.8901 6.84927 24.453 6.84927C24.9017 6.84927 25.3096 6.94308 25.6767 7.13072C26.052 7.31836 26.3457 7.57126 26.5578 7.88943V4.72H28.6503V13.7755H26.5578V12.7965C26.362 13.1229 26.0805 13.3839 25.7134 13.5797C25.3545 13.7755 24.9343 13.8734 24.453 13.8734C23.8901 13.8734 23.3802 13.7306 22.9233 13.4451C22.4665 13.1514 22.1034 12.7394 21.8342 12.2092C21.5732 11.6707 21.4426 11.0507 21.4426 10.3491ZM26.5578 10.3613C26.5578 9.83922 26.4109 9.42723 26.1172 9.12538C25.8317 8.82353 25.4809 8.67261 25.0648 8.67261C24.6488 8.67261 24.2939 8.82353 24.0002 9.12538C23.7147 9.41907 23.5719 9.82698 23.5719 10.3491C23.5719 10.8712 23.7147 11.2873 24.0002 11.5973C24.2939 11.8991 24.6488 12.0501 25.0648 12.0501C25.4809 12.0501 25.8317 11.8991 26.1172 11.5973C26.4109 11.2954 26.5578 10.8835 26.5578 10.3613ZM35.8667 10.2512C35.8667 10.447 35.8545 10.651 35.83 10.8631H31.0942C31.1269 11.2873 31.2615 11.6136 31.4981 11.842C31.7428 12.0623 32.0406 12.1724 32.3914 12.1724C32.9135 12.1724 33.2765 11.9522 33.4805 11.5116H35.7077C35.5934 11.9603 35.3854 12.3642 35.0836 12.7231C34.7899 13.0821 34.4187 13.3635 33.97 13.5675C33.5213 13.7714 33.0196 13.8734 32.4648 13.8734C31.7958 13.8734 31.2003 13.7306 30.6782 13.4451C30.156 13.1596 29.7481 12.7517 29.4545 12.2214C29.1608 11.6911 29.0139 11.0711 29.0139 10.3613C29.0139 9.65158 29.1567 9.03156 29.4422 8.50129C29.7359 7.97101 30.1438 7.5631 30.6659 7.27757C31.1881 6.99203 31.7877 6.84927 32.4648 6.84927C33.1256 6.84927 33.713 6.98795 34.227 7.26533C34.7409 7.54271 35.1407 7.93837 35.4262 8.45234C35.7199 8.9663 35.8667 9.56592 35.8667 10.2512ZM33.7252 9.70053C33.7252 9.34157 33.6029 9.05604 33.3581 8.84393C33.1134 8.63182 32.8074 8.52576 32.4403 8.52576C32.0895 8.52576 31.7918 8.62774 31.547 8.83169C31.3104 9.03564 31.1636 9.32526 31.1065 9.70053H33.7252ZM39.0143 13.8734C38.4187 13.8734 37.8885 13.7714 37.4234 13.5675C36.9584 13.3635 36.5913 13.0862 36.3221 12.7354C36.0529 12.3764 35.902 11.9766 35.8693 11.5361H37.9374C37.9619 11.7727 38.072 11.9644 38.2678 12.1113C38.4636 12.2581 38.7043 12.3315 38.9898 12.3315C39.2509 12.3315 39.4507 12.2826 39.5894 12.1847C39.7363 12.0786 39.8097 11.944 39.8097 11.7809C39.8097 11.5851 39.7077 11.4423 39.5038 11.3525C39.2998 11.2547 38.9694 11.1486 38.5126 11.0344C38.0231 10.9202 37.6152 10.8019 37.2888 10.6795C36.9625 10.549 36.6811 10.3491 36.4445 10.0799C36.2079 9.80251 36.0896 9.43131 36.0896 8.9663C36.0896 8.57471 36.1956 8.21983 36.4078 7.90166C36.628 7.57534 36.9462 7.31836 37.3623 7.13072C37.7865 6.94308 38.2882 6.84927 38.8674 6.84927C39.724 6.84927 40.3971 7.06138 40.8866 7.4856C41.3842 7.90982 41.6697 8.47273 41.7432 9.17433H39.8097C39.7771 8.93775 39.671 8.75011 39.4915 8.61142C39.3202 8.47273 39.0918 8.40339 38.8062 8.40339C38.5615 8.40339 38.3739 8.45234 38.2433 8.55023C38.1128 8.63997 38.0475 8.76642 38.0475 8.92959C38.0475 9.12538 38.1495 9.27223 38.3535 9.37013C38.5656 9.46802 38.8919 9.56592 39.3324 9.66382C39.8382 9.79435 40.2502 9.92488 40.5684 10.0554C40.8866 10.1778 41.1639 10.3817 41.4005 10.6673C41.6453 10.9446 41.7717 11.3199 41.7799 11.7931C41.7799 12.1928 41.6657 12.5518 41.4372 12.87C41.217 13.18 40.8947 13.4247 40.4705 13.6042C40.0544 13.7837 39.569 13.8734 39.0143 13.8734ZM41.9098 10.3491C41.9098 9.6475 42.0403 9.03156 42.3014 8.50129C42.5706 7.97101 42.9336 7.5631 43.3905 7.27757C43.8474 6.99203 44.3572 6.84927 44.9202 6.84927C45.4015 6.84927 45.8216 6.94716 46.1806 7.14296C46.5477 7.33875 46.8292 7.59573 47.0249 7.9139V6.94716H49.1175V13.7755H47.0249V12.8088C46.821 13.1269 46.5355 13.3839 46.1683 13.5797C45.8094 13.7755 45.3892 13.8734 44.9079 13.8734C44.3532 13.8734 43.8474 13.7306 43.3905 13.4451C42.9336 13.1514 42.5706 12.7394 42.3014 12.2092C42.0403 11.6707 41.9098 11.0507 41.9098 10.3491ZM47.0249 10.3613C47.0249 9.83922 46.8781 9.42723 46.5844 9.12538C46.2989 8.82353 45.9481 8.67261 45.532 8.67261C45.1159 8.67261 44.7611 8.82353 44.4674 9.12538C44.1818 9.41907 44.0391 9.82698 44.0391 10.3491C44.0391 10.8712 44.1818 11.2873 44.4674 11.5973C44.7611 11.8991 45.1159 12.0501 45.532 12.0501C45.9481 12.0501 46.2989 11.8991 46.5844 11.5973C46.8781 11.2954 47.0249 10.8835 47.0249 10.3613ZM53.3236 8.68484H52.1977V13.7755H50.1052V8.68484H49.3465V6.94716H50.1052V6.75137C50.1052 5.91108 50.3458 5.27475 50.8272 4.84237C51.3085 4.40183 52.0142 4.18156 52.9442 4.18156C53.0992 4.18156 53.2134 4.18564 53.2868 4.1938V5.96819C52.8871 5.94371 52.6056 6.00082 52.4425 6.13951C52.2793 6.2782 52.1977 6.52702 52.1977 6.88598V6.94716H53.3236V8.68484ZM54.625 6.23741C54.2579 6.23741 53.956 6.13135 53.7195 5.91924C53.491 5.69897 53.3768 5.42975 53.3768 5.11159C53.3768 4.78526 53.491 4.51604 53.7195 4.30393C53.956 4.08366 54.2579 3.97353 54.625 3.97353C54.984 3.97353 55.2777 4.08366 55.5061 4.30393C55.7427 4.51604 55.861 4.78526 55.861 5.11159C55.861 5.42975 55.7427 5.69897 55.5061 5.91924C55.2777 6.13135 54.984 6.23741 54.625 6.23741ZM55.6652 6.94716V13.7755H53.5726V6.94716H55.6652ZM59.5556 13.8734C58.8867 13.8734 58.283 13.7306 57.7445 13.4451C57.2143 13.1596 56.7941 12.7517 56.4841 12.2214C56.1822 11.6911 56.0313 11.0711 56.0313 10.3613C56.0313 9.65974 56.1863 9.0438 56.4963 8.51352C56.8063 7.97509 57.2306 7.5631 57.769 7.27757C58.3074 6.99203 58.9111 6.84927 59.5801 6.84927C60.2491 6.84927 60.8528 6.99203 61.3912 7.27757C61.9296 7.5631 62.3539 7.97509 62.6639 8.51352C62.9739 9.0438 63.1289 9.65974 63.1289 10.3613C63.1289 11.0629 62.9698 11.683 62.6516 12.2214C62.3416 12.7517 61.9133 13.1596 61.3667 13.4451C60.8283 13.7306 60.2246 13.8734 59.5556 13.8734ZM59.5556 12.0623C59.9554 12.0623 60.2939 11.9155 60.5713 11.6218C60.8569 11.3281 60.9996 10.9079 60.9996 10.3613C60.9996 9.81474 60.8609 9.3946 60.5836 9.10091C60.3143 8.80722 59.9799 8.66037 59.5801 8.66037C59.1722 8.66037 58.8336 8.80722 58.5644 9.10091C58.2952 9.38644 58.1606 9.80659 58.1606 10.3613C58.1606 10.9079 58.2911 11.3281 58.5522 11.6218C58.8214 11.9155 59.1559 12.0623 59.5556 12.0623ZM68.1822 12.0501H71.1436V13.7755H65.8449V12.1113L68.6839 8.67261H65.8693V6.94716H71.0824V8.61142L68.1822 12.0501ZM77.9976 10.2512C77.9976 10.447 77.9853 10.651 77.9608 10.8631H73.225C73.2577 11.2873 73.3923 11.6136 73.6289 11.842C73.8736 12.0623 74.1714 12.1724 74.5222 12.1724C75.0443 12.1724 75.4073 11.9522 75.6113 11.5116H77.8385C77.7243 11.9603 77.5162 12.3642 77.2144 12.7231C76.9207 13.0821 76.5495 13.3635 76.1008 13.5675C75.6521 13.7714 75.1504 13.8734 74.5956 13.8734C73.9266 13.8734 73.3311 13.7306 72.809 13.4451C72.2869 13.1596 71.879 12.7517 71.5853 12.2214C71.2916 11.6911 71.1447 11.0711 71.1447 10.3613C71.1447 9.65158 71.2875 9.03156 71.573 8.50129C71.8667 7.97101 72.2746 7.5631 72.7967 7.27757C73.3189 6.99203 73.9185 6.84927 74.5956 6.84927C75.2564 6.84927 75.8438 6.98795 76.3578 7.26533C76.8717 7.54271 77.2715 7.93837 77.557 8.45234C77.8507 8.9663 77.9976 9.56592 77.9976 10.2512ZM75.856 9.70053C75.856 9.34157 75.7337 9.05604 75.4889 8.84393C75.2442 8.63182 74.9383 8.52576 74.5711 8.52576C74.2203 8.52576 73.9226 8.62774 73.6778 8.83169C73.4412 9.03564 73.2944 9.32526 73.2373 9.70053H75.856ZM85.1099 6.94716V13.7755H83.0174V12.8455C82.8053 13.1473 82.5157 13.3921 82.1485 13.5797C81.7896 13.7592 81.3898 13.8489 80.9493 13.8489C80.4272 13.8489 79.9662 13.7347 79.5665 13.5063C79.1667 13.2697 78.8567 12.9311 78.6365 12.4906C78.4162 12.0501 78.3061 11.532 78.3061 10.9365V6.94716H80.3864V10.655C80.3864 11.1119 80.5047 11.4668 80.7413 11.7197C80.9778 11.9726 81.296 12.099 81.6958 12.099C82.1037 12.099 82.4259 11.9726 82.6625 11.7197C82.8991 11.4668 83.0174 11.1119 83.0174 10.655V6.94716H85.1099ZM88.6566 13.8734C88.0611 13.8734 87.5308 13.7714 87.0658 13.5675C86.6008 13.3635 86.2337 13.0862 85.9644 12.7354C85.6952 12.3764 85.5443 11.9766 85.5117 11.5361H87.5797C87.6042 11.7727 87.7144 11.9644 87.9101 12.1113C88.1059 12.2581 88.3466 12.3315 88.6321 12.3315C88.8932 12.3315 89.0931 12.2826 89.2318 12.1847C89.3786 12.0786 89.452 11.944 89.452 11.7809C89.452 11.5851 89.3501 11.4423 89.1461 11.3525C88.9422 11.2547 88.6117 11.1486 88.1549 11.0344C87.6654 10.9202 87.2575 10.8019 86.9312 10.6795C86.6048 10.549 86.3234 10.3491 86.0868 10.0799C85.8502 9.80251 85.7319 9.43131 85.7319 8.9663C85.7319 8.57471 85.838 8.21983 86.0501 7.90166C86.2704 7.57534 86.5885 7.31836 87.0046 7.13072C87.4288 6.94308 87.9305 6.84927 88.5098 6.84927C89.3664 6.84927 90.0394 7.06138 90.5289 7.4856C91.0266 7.90982 91.3121 8.47273 91.3855 9.17433H89.452C89.4194 8.93775 89.3133 8.75011 89.1339 8.61142C88.9625 8.47273 88.7341 8.40339 88.4486 8.40339C88.2038 8.40339 88.0162 8.45234 87.8857 8.55023C87.7551 8.63997 87.6899 8.76642 87.6899 8.92959C87.6899 9.12538 87.7919 9.27223 87.9958 9.37013C88.2079 9.46802 88.5342 9.56592 88.9748 9.66382C89.4806 9.79435 89.8926 9.92488 90.2107 10.0554C90.5289 10.1778 90.8063 10.3817 91.0429 10.6673C91.2876 10.9446 91.4141 11.3199 91.4222 11.7931C91.4222 12.1928 91.308 12.5518 91.0796 12.87C90.8593 13.18 90.5371 13.4247 90.1128 13.6042C89.6968 13.7837 89.2114 13.8734 88.6566 13.8734Z" fill="#4A3960"/>
<path d="M64.4838 13.8734C64.1167 13.8734 63.8148 13.7674 63.5782 13.5552C63.3498 13.335 63.2356 13.0658 63.2356 12.7476C63.2356 12.4213 63.3498 12.148 63.5782 11.9277C63.8148 11.7074 64.1167 11.5973 64.4838 11.5973C64.8427 11.5973 65.1364 11.7074 65.3649 11.9277C65.6014 12.148 65.7197 12.4213 65.7197 12.7476C65.7197 13.0658 65.6014 13.335 65.3649 13.5552C65.1364 13.7674 64.8427 13.8734 64.4838 13.8734Z" fill="#9989C6"/>
<path d="M0 3.0593C0 1.36969 1.36969 0 3.0593 0H13.9368C15.6264 0 16.9961 1.36969 16.9961 3.0593V13.9368C16.9961 15.6264 15.6264 16.9961 13.9368 16.9961H3.0593C1.36969 16.9961 0 15.6264 0 13.9368V3.0593Z" fill="#9989C6"/>
<mask id="mask0" style="mask-type:alpha" maskUnits="userSpaceOnUse" x="0" y="0" width="17" height="17">
<rect width="16.9961" height="16.9961" rx="3.0593" fill="#ECCB1C"/>
</mask>
<g mask="url(#mask0)">
<path d="M18.0306 9.30612C18.0306 8.10079 17.3722 6.39555 16.8673 5.38622L13.7 2.34C13.7 2.34 10.8624 5.00427 10.3946 5.78184C10.0153 5.60792 7.95894 5.26869 7.6527 5.38622L5.81632 3.68367L4.2653 8.36367C4.2653 8.36367 4.92986 9.03109 4.96115 9.06259C4.61518 10.0378 4.95546 11.9541 4.95546 11.9541L9.69388 19.1939C9.82308 19.2005 17.2009 19.8885 15.898 17.8367C20.044 17.8367 18.0306 13.4522 18.0306 9.30612Z" fill="#7D70A0"/>
</g>
<path d="M12.6045 11.9853C12.079 12.7244 11.0775 13.3874 9.32788 13.8705C8.80638 14.0144 8.25485 14.0144 7.73335 13.8705C5.98376 13.3874 4.98222 12.7244 4.45669 11.9853C4.45669 11.9853 4.13884 10.5294 4.72379 9.26445C5.54582 7.48701 8.18398 4.82418 8.18398 4.82418C8.30375 4.81118 8.41951 4.8053 8.53062 4.8053C8.64173 4.8053 8.75748 4.81118 8.87725 4.82418C8.87725 4.82418 11.6136 6.9209 12.3168 8.74861C13.1027 10.7913 12.6045 11.9853 12.6045 11.9853Z" fill="#FCEFDF"/>
<path d="M12.6045 11.9853C12.079 12.7244 11.0775 13.3874 9.32788 13.8705C9.06728 13.9426 8.79894 13.9785 8.53061 13.9785V4.8053C8.64172 4.8053 8.75747 4.81118 8.87725 4.82418C8.87725 4.82418 11.6135 6.92103 12.3167 8.74861C13.1028 10.7913 12.6045 11.9853 12.6045 11.9853Z" fill="#EDD4BE"/>
<path d="M13.6972 2.32654C11.7858 2.60289 10.5373 4.32636 10.0436 5.14702C9.64318 4.96346 9.24424 4.86256 8.87999 4.82419C8.91936 5.10026 9.35866 5.51675 9.41542 5.90124C9.61647 7.2634 9.43254 8.47323 9.6365 9.39188C9.77082 9.99639 10.7788 9.54892 11.7315 10.1207C12.5969 10.6402 12.6045 11.9854 12.6045 11.9854C13.3236 10.9742 13.1531 9.82054 12.7864 8.78876C15.6491 6.23064 13.6972 2.32654 13.6972 2.32654Z" fill="#54436F"/>
<path d="M3.36397 2.32654C3.36397 2.32654 1.41135 6.23203 4.27634 8.79016C3.90915 9.82156 3.73791 10.9747 4.45668 11.9854C4.45668 11.9854 4.46699 10.6402 5.33247 10.1207C6.28517 9.54889 7.29314 9.99639 7.42746 9.39188C7.63142 8.47323 7.44749 7.2634 7.64854 5.90124C7.7053 5.51675 8.1446 5.10026 8.18397 4.82419C7.81904 4.86266 7.41932 4.9638 7.01821 5.14801C6.52494 4.32775 5.27617 2.60301 3.36397 2.32654Z" fill="#5C4978"/>
<path d="M5.98377 5.83749C5.56718 6.21941 5.18433 6.72513 4.8801 7.38312C4.85781 7.43141 4.83491 7.48062 4.81201 7.53044C3.62477 6.38344 4.27286 4.41628 4.27286 4.41628C5.31494 4.567 5.91104 5.69203 5.98377 5.83749Z" fill="#FCEFDF"/>
<path d="M12.2493 7.53044C12.2264 7.48062 12.2035 7.43141 12.1812 7.38312C11.877 6.72513 11.4941 6.21941 11.0775 5.83749C11.1503 5.69203 11.7464 4.567 12.7884 4.41628C12.7884 4.41628 13.4365 6.38344 12.2493 7.53044Z" fill="#EDD4BE"/>
<path d="M8.56537 10.7603C7.94152 10.7603 7.39312 10.7975 7.55396 11.5011C7.65796 11.956 8.3196 12.2809 8.56537 12.2809C8.81115 12.2809 9.47279 11.956 9.57678 11.5011C9.73763 10.7974 9.18923 10.7603 8.56537 10.7603Z" fill="#514B40"/>
<path d="M9.57673 11.5009C9.47286 11.9561 8.81113 12.281 8.56535 12.281V10.7604C9.1893 10.7604 9.73767 10.7976 9.57673 11.5009Z" fill="#3A352E"/>
<path d="M7.50952 9.24864C7.51951 8.94566 7.28201 8.69195 6.97903 8.68195C6.67606 8.67195 6.42234 8.90946 6.41234 9.21243C6.40235 9.51541 6.63985 9.76912 6.94283 9.77912C7.2458 9.78912 7.49952 9.55161 7.50952 9.24864Z" fill="#514B40"/>
<path d="M10.1362 9.77402C10.4389 9.76039 10.6732 9.50397 10.6595 9.2013C10.6459 8.89863 10.3895 8.66432 10.0868 8.67795C9.78415 8.69158 9.54984 8.948 9.56347 9.25067C9.57711 9.55335 9.83353 9.78766 10.1362 9.77402Z" fill="#3A352E"/>
</svg>
